<svg width="126" height="73" viewBox="0 0 126 73" fill="none" xmlns="http://www.w3.org/2000/svg">
<g id="Frame 8">
<g id="svgg">
<path id="path0" fill-rule="evenodd" clip-rule="evenodd" d="M28.7613 11.9998C28.4422 12.0515 28.0267 12.1636 27.838 12.2492C27.5974 12.3585 27.2619 12.4218 26.7119 12.4614C26.0923 12.5061 25.8453 12.5578 25.5313 12.7089C25.2922 12.8242 24.8906 12.9325 24.5214 12.9816C24.1125 13.0358 23.8054 13.1233 23.5984 13.2445C23.428 13.3444 23.0425 13.4687 22.7413 13.521C22.3032 13.5972 22.1642 13.6536 22.0461 13.8038C21.9649 13.9067 21.7689 14.0261 21.6108 14.0686C21.4527 14.1114 21.2079 14.2241 21.0671 14.3199C20.9263 14.4153 20.691 14.533 20.5442 14.5815C20.3105 14.6587 19.7646 14.9959 19.4401 15.2639C19.3803 15.3133 19.1598 15.4097 18.9503 15.4777C18.7408 15.546 18.5279 15.6609 18.4772 15.7337C18.4261 15.8061 18.2548 15.9403 18.0963 16.0319C17.9376 16.1232 17.7155 16.2731 17.6027 16.3653C17.49 16.4573 17.3558 16.5325 17.3047 16.5325C17.2534 16.5325 17.0855 16.6516 16.9315 16.7967C16.7774 16.9419 16.5667 17.0968 16.4631 17.1412C16.253 17.2306 14.8191 18.6882 14.3866 19.2519C14.2335 19.4512 13.9434 19.7774 13.7415 19.977C13.5399 20.1764 13.2532 20.5259 13.1045 20.7538C12.9562 20.9818 12.7754 21.2101 12.7029 21.2614C12.6305 21.3128 12.5297 21.5285 12.4789 21.7407C12.4109 22.0253 12.3416 22.1475 12.215 22.2051C12.0342 22.2873 12.0064 22.3837 11.9384 23.1674C11.9176 23.4067 11.8345 23.8608 11.7532 24.176C11.5673 24.8993 11.5667 25.3083 11.751 25.6692C11.836 25.8357 11.8962 26.0971 11.8965 26.3008C11.8971 26.9498 12.0244 27.4929 12.2247 27.7017C12.3277 27.8094 12.4569 28.0462 12.5117 28.2285C12.5665 28.4105 12.6787 28.6268 12.7609 28.709C12.8428 28.7909 12.9817 29.0104 13.0689 29.1961C13.1666 29.4036 13.3127 29.5787 13.4482 29.6499C13.5695 29.7138 13.9084 30.0026 14.2017 30.2916C14.4949 30.581 14.7614 30.8175 14.7942 30.8175C14.827 30.8175 15.0569 31.0133 15.3054 31.2526C15.5537 31.4919 15.7902 31.6875 15.8312 31.6875C16.0265 31.6875 16.4709 31.8685 16.647 32.0197C16.8729 32.2137 17.2591 32.287 17.8806 32.2543L18.3156 32.2313L18.3102 31.7486C18.3064 31.4192 18.2645 31.2045 18.1786 31.0732C17.7448 30.4113 17.7095 27.1645 18.1272 26.331C18.1997 26.1862 18.3112 25.6997 18.3751 25.2494C18.4432 24.7702 18.566 24.2591 18.6709 24.0167C18.7695 23.789 18.9008 23.42 18.9626 23.197C19.0243 22.9741 19.1362 22.713 19.2108 22.617C19.2858 22.521 19.489 22.1324 19.6622 21.7536C20.0056 21.0026 20.4447 20.2988 20.7493 20.0117C20.8557 19.9112 20.9657 19.7579 20.9931 19.671C21.0208 19.5841 21.1093 19.4921 21.19 19.4666C21.2709 19.4408 21.3956 19.2824 21.4678 19.1143C21.7346 18.4924 23.067 17.0719 23.5846 16.8581C23.7667 16.7829 23.9449 16.6544 23.9809 16.5725C24.0168 16.4907 24.1604 16.3874 24.3003 16.343C24.4458 16.2967 24.592 16.1859 24.643 16.0829C24.7375 15.8924 25.3996 15.3961 25.8233 15.1981C25.9631 15.1326 26.2895 14.9493 26.5484 14.7906C26.8077 14.6322 27.232 14.4317 27.4915 14.3457C27.7511 14.2594 28.0481 14.1265 28.1515 14.0503C28.2765 13.9584 28.6312 13.8674 29.2036 13.7811C29.8065 13.6898 30.1545 13.5985 30.3571 13.4782L30.6472 13.3059H33.2223H35.7974L36.1238 13.4794C36.3033 13.5745 36.728 13.7153 37.0669 13.7915C37.4062 13.8677 37.7813 13.9804 37.901 14.0421C38.0207 14.1035 38.2945 14.2156 38.5093 14.2912C39.1056 14.5012 40.17 15.2488 40.9115 15.9784C41.051 16.116 41.2813 16.2646 41.4227 16.3087C41.7995 16.4264 42.9533 17.6586 43.2743 18.2855C43.342 18.4181 43.5074 18.6492 43.6416 18.7987C43.7758 18.9486 43.8857 19.1184 43.8857 19.176C43.8857 19.2339 44.046 19.4414 44.242 19.6373C44.5053 19.9005 44.717 20.2374 45.0531 20.928C45.3032 21.4419 45.5634 21.9274 45.6314 22.0074C45.6995 22.0871 45.8088 22.3396 45.874 22.5688C45.9395 22.7981 46.068 23.0959 46.16 23.2313C46.2702 23.3938 46.3553 23.6782 46.4107 24.0686C46.4725 24.505 46.543 24.7242 46.6807 24.9043C46.8328 25.1039 46.8814 25.28 46.944 25.8622C46.9995 26.3745 47.0663 26.6469 47.1812 26.8292C47.488 27.3157 47.6307 27.868 47.7284 28.9477C47.7693 29.3977 47.8191 29.8801 47.8396 30.0199C48.1127 31.8805 48.2122 33.7985 48.0935 34.9144C47.5895 39.6606 47.6011 39.5869 47.26 40.2076C47.1179 40.4664 47.0007 40.8046 46.9708 41.0417C46.8962 41.6355 46.7941 41.9983 46.6426 42.2102C46.5679 42.3147 46.4552 42.6504 46.3918 42.9565C46.2819 43.4893 46.1565 43.7969 46.0494 43.7969C46.022 43.7969 45.9461 43.9802 45.8812 44.204C45.811 44.4449 45.6799 44.689 45.5596 44.802C45.4481 44.9075 45.3227 45.0945 45.2815 45.2183C45.1611 45.5782 44.3992 46.6859 44.1311 46.8903C43.9959 46.9929 43.8857 47.1249 43.8857 47.1831C43.8857 47.2411 43.7843 47.39 43.6602 47.5141C43.536 47.6381 43.3559 47.8582 43.2598 48.0034C43.1637 48.1486 42.952 48.3422 42.7898 48.4335C42.6273 48.5248 42.2912 48.7997 42.0426 49.0444C41.7944 49.2891 41.4221 49.5869 41.2154 49.7066C41.0088 49.8263 40.7401 50.0467 40.6182 50.1962C40.4242 50.4346 40.358 50.468 40.0824 50.468C39.8112 50.468 39.7428 50.5014 39.5834 50.7104C39.4231 50.9202 39.3336 50.9633 38.9112 51.0332C38.5505 51.093 38.3707 51.1648 38.2195 51.3097C38.0321 51.4891 37.9385 51.5124 37.1069 51.5877C36.464 51.6456 36.1723 51.7017 36.1071 51.7795C35.9086 52.0163 35.7505 52.0685 34.9189 52.1721C32.4748 52.4769 30.0418 52.1 30.6866 51.5169C30.8519 51.367 31.6369 51.2791 32.8802 51.2709C34.3692 51.2612 33.7471 50.5171 32.1179 50.359C31.2624 50.2762 31.0822 49.7381 31.3698 48.1253C31.5046 47.3699 31.3018 46.1746 30.9685 45.7583C30.8554 45.6169 30.7149 45.3861 30.6563 45.2457C30.5688 45.0347 30.4828 44.9661 30.1637 44.853C29.9507 44.7778 29.7019 44.6584 29.6102 44.5879C28.9931 44.113 27.0442 44.1146 26.4451 44.5907C26.3027 44.7034 26.0639 44.8177 25.9143 44.8442C25.479 44.9213 25.3883 44.9604 25.3883 45.0709C25.3883 45.3955 24.9646 45.5489 24.7381 45.3061C24.523 45.0753 24.5557 44.9087 24.8534 44.7204C25.0336 44.6061 25.1539 44.4525 25.2355 44.2317C25.3161 44.0135 25.4242 43.8747 25.571 43.8004C25.6897 43.7402 25.9373 43.6004 26.1206 43.4899C26.304 43.3791 26.6467 43.2537 26.8823 43.2109C27.1176 43.1681 27.4953 43.0509 27.7215 42.9502C28.1754 42.7483 28.0207 42.7357 29.4596 43.0941C30.2585 43.2934 30.8708 43.6287 31.3991 44.1565C31.7185 44.4761 31.7969 44.5139 32.5262 44.7L33.3099 44.8999L33.9008 44.7C34.3522 44.5476 34.5822 44.4182 34.8739 44.1527C35.3092 43.7569 36.045 43.3438 36.6042 43.1813C36.8133 43.1205 37.0767 42.9936 37.1891 42.8995C37.3016 42.8053 37.4972 42.7055 37.6241 42.6778C38.3644 42.5163 37.9105 42.2914 36.7053 42.2225C36.1263 42.1894 35.8576 42.1387 35.5807 42.0099C35.3807 41.9167 35.1029 41.839 34.9633 41.8368C34.5781 41.8308 34.1935 41.6661 33.9843 41.4177C33.881 41.2948 33.7244 41.1733 33.6362 41.1478C33.5483 41.1223 33.2803 40.9132 33.0409 40.6833C32.8018 40.4538 32.4345 40.1024 32.225 39.9024C32.0033 39.6912 31.8442 39.4764 31.8442 39.3882C31.8442 38.9808 32.7372 38.8514 33.0091 39.2191C33.0938 39.3338 33.285 39.4638 33.4337 39.5085C33.6028 39.5589 33.7922 39.6987 33.9383 39.8804C34.0668 40.0404 34.2199 40.1713 34.2782 40.1713C34.3368 40.1713 34.4414 40.2394 34.5107 40.3225C35.2037 41.1516 37.695 41.0483 37.936 40.1805C38.2815 38.9351 38.0018 37.698 37.1938 36.8985C36.9645 36.6714 36.7768 36.451 36.7768 36.4085C36.7768 36.366 36.6426 36.2627 36.4785 36.1793C36.1597 36.0165 35.7218 35.5911 35.422 35.1524L35.2377 34.8832L34.952 35.029C34.7948 35.109 34.649 35.2195 34.6279 35.2746C34.6067 35.3294 34.4757 35.4283 34.3368 35.4944C34.1979 35.5602 34.0221 35.7158 33.9465 35.8401C33.8709 35.9642 33.7474 36.1006 33.6721 36.1428C33.5969 36.1849 33.3817 36.3937 33.194 36.6066C33.0062 36.8197 32.6011 37.1601 32.294 37.3635C31.9866 37.5666 31.6489 37.8034 31.5434 37.89C31.4375 37.9763 31.1518 38.0862 30.908 38.1341C30.6642 38.1819 30.3101 38.301 30.1208 38.3983C29.6272 38.652 29.2234 38.7043 27.6875 38.7128C26.1566 38.7213 26.0047 38.7437 25.7921 38.9905C25.6888 39.1108 25.5401 39.1766 25.3155 39.2015C24.768 39.2623 24.6742 39.296 24.626 39.4484C24.6005 39.529 24.4234 39.7 24.2329 39.8288C24.042 39.9575 23.7263 40.2554 23.531 40.4906C23.3357 40.7262 22.9889 41.1075 22.7602 41.338C22.4348 41.6664 22.3343 41.8216 22.2972 42.0553C22.2606 42.2826 22.2014 42.378 22.0468 42.458C21.757 42.6079 21.7497 42.6602 21.7289 44.836C21.7094 46.8484 21.6713 47.1406 21.4145 47.2392C20.9994 47.3982 20.8979 46.867 20.8822 44.4496C20.868 42.2751 20.8797 42.1809 21.2089 41.7898C21.3119 41.6674 21.4331 41.395 21.4785 41.1843C21.527 40.957 21.6287 40.7381 21.7286 40.6459C21.8209 40.5602 21.9721 40.3234 22.0647 40.12C22.2471 39.7182 22.8459 39.1467 23.28 38.9603C23.417 38.9011 23.6321 38.7745 23.7578 38.6785C23.8838 38.5828 24.098 38.4672 24.2341 38.4216C24.3702 38.3762 24.5693 38.2575 24.6767 38.158C24.9463 37.9083 26.4523 37.4996 27.3104 37.4435C27.6695 37.4202 28.1266 37.3538 28.326 37.2965C28.5254 37.2389 28.9928 37.1299 29.3645 37.0543C30.026 36.9196 31.0958 36.4054 31.246 36.1497C31.2759 36.0993 31.3982 36.0077 31.5179 35.9466C32.0789 35.6591 32.9927 34.5221 33.223 33.8246C33.2683 33.6876 33.4091 33.494 33.5361 33.3948L33.7663 33.2147V26.2636V19.3126L33.4945 19.056C33.2734 18.8479 33.2223 18.7484 33.2223 18.5257C33.2223 18.3538 33.0973 17.9791 32.8865 17.5191C32.5397 16.763 32.5693 16.7986 31.4237 15.7579C31.2813 15.6288 31.0359 15.5067 30.8176 15.4563C30.6157 15.4097 30.3643 15.3111 30.2588 15.2371C30.1533 15.1631 29.946 15.0806 29.7983 15.0535C29.2886 14.9607 29.2669 15.058 29.2042 17.7291C29.1884 18.407 29.139 19.1901 29.0946 19.4694C28.6901 22.0165 28.5805 23.2455 28.5443 25.6329C28.4913 29.1118 28.4759 29.2503 28.073 29.8747C28.0343 29.9345 27.9684 30.1216 27.9262 30.29C27.7879 30.8449 27.1551 31.4627 26.7204 31.4674C26.4741 31.4702 26.1855 31.5785 25.8901 31.7788C25.7874 31.8484 25.4021 31.9504 25.0342 32.0049C24.5627 32.0751 24.3182 32.1478 24.2058 32.2518C24.1179 32.3327 23.87 32.4508 23.6545 32.5141C23.4391 32.577 23.2163 32.6954 23.1593 32.7764C23.1026 32.8576 22.7892 33.0569 22.4632 33.2191C21.9015 33.4987 21.5207 33.8211 21.1688 34.3149C21.0901 34.4254 20.9833 34.5154 20.931 34.5154C20.8787 34.5154 20.6774 34.7031 20.4837 34.9323C20.29 35.1619 19.9271 35.5593 19.677 35.8156C19.4269 36.0719 19.2225 36.338 19.2225 36.4066C19.2225 36.4753 19.1081 36.701 18.9686 36.9085C18.8287 37.1157 18.7147 37.3324 18.7147 37.3894C18.7147 37.5783 18.4939 38.0305 18.3461 38.1435C18.2318 38.2314 18.1849 38.3989 18.1228 38.9411C18.08 39.3186 17.982 39.8722 17.9051 40.1713C17.5826 41.428 17.5706 42.0698 17.851 43.1445C17.9288 43.4436 18.0242 44.0734 18.0629 44.5444C18.1345 45.4107 18.1801 45.5823 18.3849 45.752C18.4472 45.804 18.5512 46.0297 18.6155 46.2539C18.6797 46.4778 18.7975 46.7234 18.8775 46.7993C18.9572 46.8752 19.0968 47.1047 19.1872 47.3094C19.3459 47.6684 19.5453 47.9077 20.6368 49.0501C20.9162 49.3426 21.2917 49.7482 21.4712 49.9516C21.6722 50.1796 21.9752 50.4119 22.261 50.5577C22.5158 50.6881 22.7902 50.8827 22.8705 50.9904C22.9508 51.0981 23.1502 51.2394 23.3137 51.304C23.4772 51.3689 23.6926 51.497 23.7925 51.5886C23.892 51.6806 24.1412 51.8097 24.3459 51.8761C24.5507 51.9426 24.7734 52.0578 24.8411 52.1324C24.9085 52.2068 25.198 52.3245 25.4843 52.3935C25.793 52.4681 26.2114 52.6435 26.5131 52.8252C26.9028 53.0598 27.0738 53.1234 27.2471 53.0979C27.4068 53.0746 27.5605 53.1199 27.7712 53.2528C27.935 53.3564 28.1155 53.4411 28.1719 53.4411C28.2283 53.4411 28.4847 53.506 28.7421 53.5853C28.9991 53.665 29.5315 53.7632 29.9246 53.8038C30.4699 53.8605 30.7467 53.9301 31.0907 54.0976L31.5418 54.3174L33.3795 54.358C35.7937 54.4116 37.2247 54.3202 37.4613 54.0979C37.633 53.9367 37.8002 53.9011 39.1487 53.7374C39.5633 53.687 39.8291 53.6111 40.0263 53.4868C40.3101 53.3076 40.9735 53.0783 41.2088 53.0783C41.3742 53.0783 41.9031 52.8305 42.1951 52.6161C42.3227 52.5223 42.5674 52.4234 42.7391 52.3963C42.9108 52.3692 43.1662 52.2713 43.307 52.1787C43.4475 52.0862 43.7087 51.9366 43.8873 51.8459C44.0659 51.7555 44.2284 51.6576 44.2483 51.6286C44.3015 51.5515 44.6773 51.3714 45.008 51.2643C45.1668 51.213 45.3599 51.0908 45.4374 50.9923C45.5146 50.894 45.6651 50.7766 45.7719 50.7315C45.8787 50.6862 46.1528 50.4293 46.3811 50.16C46.6095 49.8908 46.8234 49.6704 46.8568 49.6704C46.8899 49.6704 47.2597 49.336 47.678 48.9273C48.0966 48.5185 48.5886 48.0535 48.7713 47.8938C48.9544 47.7345 49.1714 47.4583 49.2539 47.2801C49.3365 47.1022 49.4577 46.8972 49.5236 46.8248C49.6757 46.6567 50.0745 45.973 50.3029 45.4884C50.4002 45.2819 50.5316 45.0844 50.5946 45.0489C50.6576 45.0136 50.7867 44.7585 50.8809 44.4815C50.9754 44.2047 51.2028 43.7298 51.3862 43.4266C51.5698 43.1231 51.7197 42.8075 51.7197 42.7254C51.7197 42.6435 51.8331 42.3626 51.9721 42.1013C52.1614 41.7445 52.2502 41.4513 52.3286 40.9249C52.3935 40.4887 52.4849 40.1521 52.5709 40.0344C52.7882 39.7365 52.8049 39.6471 52.8812 38.3806C52.942 37.3768 52.9854 37.0965 53.1527 36.6299L53.3518 36.0744V34.0079C53.3518 32.1693 53.3366 31.8975 53.2147 31.5426C52.9968 30.9094 52.9574 30.6414 52.8853 29.3054C52.8235 28.1596 52.8021 28.0238 52.6427 27.783C52.408 27.4278 52.3214 27.1192 52.2666 26.4431C52.2285 25.9752 52.1837 25.8247 52.0105 25.5857C51.8895 25.4191 51.7664 25.1213 51.7204 24.8842C51.6158 24.3463 51.447 23.9477 51.2006 23.6583C51.0913 23.5298 50.9792 23.3012 50.9521 23.1507C50.8982 22.8544 50.7451 22.5093 50.5873 22.3286C50.5325 22.2659 50.4216 22.0228 50.341 21.7882C50.2604 21.5536 50.1337 21.2948 50.06 21.2129C49.986 21.1314 49.8666 20.9015 49.7945 20.7022C49.7223 20.5026 49.5907 20.2743 49.5018 20.1946C49.413 20.1146 49.2854 19.8782 49.2183 19.6688C49.1516 19.4594 49.0668 19.2881 49.0306 19.2881C48.8854 19.2881 47.7996 18.1321 47.4858 17.6434C47.3019 17.3572 47.094 17.1044 47.0237 17.0817C46.9535 17.059 46.8401 16.9422 46.772 16.8222C46.7037 16.7023 46.5667 16.5728 46.4671 16.5351C46.3676 16.4973 46.235 16.3669 46.1723 16.2457C46.1058 16.1175 46.0003 16.025 45.9203 16.025C45.8447 16.025 45.6903 15.9478 45.5776 15.8537C45.4648 15.7595 45.2399 15.615 45.0777 15.5328C44.9154 15.4503 44.7378 15.3291 44.6833 15.2633C44.6285 15.1974 44.4187 15.0608 44.2164 14.96C44.0145 14.8589 43.7477 14.6999 43.6236 14.607C43.4998 14.5142 43.2037 14.3391 42.9659 14.2182C42.7281 14.0976 42.4707 13.9294 42.3942 13.845C42.1926 13.6221 42.0776 13.5749 41.5204 13.4861C41.2454 13.4423 40.8806 13.3248 40.7096 13.225C40.5388 13.1249 40.1309 12.9936 39.803 12.9328C39.4751 12.872 39.1046 12.7634 38.9799 12.6913C38.6794 12.5172 38.4948 12.4819 37.466 12.4026C36.9541 12.3632 36.4271 12.2769 36.1871 12.1932C35.2944 11.8817 30.2988 11.7517 28.7613 11.9998ZM36.487 37.8718C36.487 37.8803 36.5645 38.1076 36.6587 38.3765L36.83 38.8658L36.6536 39.056C36.1515 39.5976 34.9447 38.7264 35.4125 38.1602C35.6425 37.8812 36.4826 37.6558 36.487 37.8718Z" fill="#010101"/>
<path id="path1" fill-rule="evenodd" clip-rule="evenodd" d="M0 36.2558V72.5116H63H126V36.2558V0H63H0V36.2558ZM35.738 11.3512C35.8908 11.3776 36.3094 11.49 36.6685 11.6012C37.0582 11.7218 37.6428 11.8329 38.1191 11.8767C38.9425 11.9523 39.6068 12.1714 39.9338 12.4747C40.0248 12.5594 40.285 12.6412 40.623 12.6926C40.9538 12.7423 41.3075 12.8528 41.5283 12.9753C41.7281 13.0859 42.0522 13.2002 42.2491 13.2294C42.5033 13.2672 42.6611 13.3409 42.7956 13.4845C42.9172 13.6149 43.0951 13.7052 43.2961 13.7392C43.4728 13.7691 43.7069 13.8784 43.8376 13.9915C43.9639 14.1013 44.2307 14.2456 44.4301 14.3117C44.6506 14.3851 44.9826 14.5951 45.2778 14.8479C45.5446 15.0765 45.8942 15.3521 46.0549 15.4604C46.2152 15.5687 46.414 15.7888 46.4959 15.9497C46.5781 16.1109 46.6764 16.2425 46.7139 16.2425C46.7517 16.2425 46.9224 16.3424 47.0931 16.4642C47.2642 16.5861 47.5026 16.7482 47.6233 16.8241C48.0189 17.0738 49.3665 18.8384 49.4827 19.2588C49.5189 19.3901 49.6616 19.6329 49.8002 19.7985C49.9385 19.9638 50.0519 20.1502 50.0519 20.2126C50.0519 20.2746 50.177 20.4428 50.3301 20.5863C50.5162 20.7608 50.6873 21.0385 50.847 21.4258C50.978 21.7442 51.1585 22.1031 51.248 22.2234C51.3374 22.3437 51.4697 22.6054 51.5416 22.805C51.6137 23.0043 51.7463 23.2981 51.8364 23.4574C51.9262 23.6171 52.0374 23.9584 52.0837 24.216C52.1297 24.4739 52.2327 24.7762 52.3124 24.8879C52.399 25.0098 52.508 25.3807 52.5839 25.8137C52.6535 26.2111 52.7606 26.594 52.8217 26.6645C52.9909 26.86 53.0926 27.2262 53.1717 27.9234C53.2111 28.2717 53.3235 28.8611 53.4215 29.2336C54.1765 32.1066 54.1642 36.3452 53.3947 38.5979C53.3238 38.8051 53.2435 39.2456 53.2164 39.5765C53.1638 40.2186 53.0164 40.7473 52.8079 41.0417C52.7373 41.1412 52.6381 41.4784 52.588 41.7908C52.5297 42.1516 52.4327 42.4524 52.3218 42.6161C52.2257 42.7575 52.1139 43.0528 52.0733 43.2723C51.9788 43.7834 51.8896 44.0145 51.7164 44.1996C51.6395 44.2815 51.5315 44.4988 51.4764 44.6827C51.3513 45.097 50.6177 46.3559 50.3014 46.6976C50.1723 46.8371 49.9489 47.0789 49.805 47.2345C49.6613 47.3903 49.5085 47.6479 49.4657 47.8069C49.4163 47.9902 49.2824 48.1904 49.0994 48.3548C48.9406 48.4971 48.7629 48.7147 48.7044 48.8382C48.5802 49.0995 47.4894 50.1191 47.0087 50.423C46.8273 50.5376 46.5715 50.7252 46.4404 50.8399C46.3094 50.9545 46.1604 51.0483 46.1097 51.0483C46.0587 51.0483 45.9456 51.1447 45.8583 51.2627C45.7591 51.3969 45.584 51.5099 45.3912 51.5641C45.2217 51.6116 45.0012 51.7395 44.9017 51.8478C44.736 52.0285 43.1033 53.0059 42.9676 53.0059C42.9358 53.0059 42.7294 53.1165 42.5092 53.2519C42.2563 53.4068 41.9054 53.539 41.5573 53.6105C41.254 53.6725 40.8949 53.7881 40.7594 53.8671C40.6237 53.9462 40.3008 54.0494 40.0415 54.097C39.782 54.1445 39.3177 54.2604 39.0096 54.3543C38.1204 54.6247 36.8588 54.6931 33.5286 54.6512C30.5169 54.6134 29.9845 54.5684 29.1958 54.2837C29.0358 54.2258 28.6455 54.1427 28.3286 54.0986C27.9433 54.045 27.7033 53.972 27.6034 53.8785C27.5112 53.7919 27.2513 53.7047 26.9243 53.6508C26.5665 53.5916 26.2902 53.4943 26.0735 53.3507C25.8968 53.2336 25.5569 53.079 25.3178 53.0066C25.0787 52.9341 24.7603 52.7811 24.61 52.6665C24.3224 52.447 23.7236 52.1359 23.5885 52.1359C23.5447 52.1359 23.4177 52.0216 23.3062 51.8821C23.1635 51.7033 22.9953 51.5965 22.7376 51.5216C22.5364 51.463 22.2963 51.3352 22.2043 51.2376C22.1127 51.1399 21.9413 51.02 21.8235 50.9712C21.706 50.9227 21.5614 50.7895 21.5025 50.6755C21.4436 50.5615 21.3601 50.468 21.317 50.468C21.2742 50.468 21.0316 50.2643 20.7783 50.0149C20.5251 49.7655 20.1203 49.3829 19.879 49.1644C19.6377 48.9458 19.4405 48.7292 19.4405 48.6832C19.4405 48.6373 19.3568 48.5447 19.2544 48.4776C19.1523 48.4109 19.003 48.203 18.9233 48.016C18.8433 47.8293 18.7189 47.6111 18.6467 47.5314C18.5746 47.4517 18.4574 47.2068 18.3865 46.9876C18.3157 46.7681 18.1821 46.4891 18.0898 46.3676C17.9978 46.2461 17.8769 45.9523 17.8214 45.7148C17.766 45.4774 17.6517 45.1477 17.5676 44.9827C16.8708 43.6177 16.9054 39.774 17.6236 38.7862C17.6989 38.6823 17.7934 38.4212 17.8334 38.2062C17.926 37.708 18.0171 37.4709 18.1629 37.3503C18.2265 37.2974 18.3443 37.0332 18.425 36.7634C18.5053 36.4935 18.6222 36.2303 18.6845 36.1783C18.7472 36.1267 18.8578 35.968 18.9306 35.8257C19.0033 35.6833 19.1558 35.4802 19.2698 35.3741C19.3835 35.2677 19.5747 35.0611 19.6944 34.9147C20.0132 34.5243 20.1764 34.3596 20.4857 34.1168C20.8029 33.8674 21.0363 33.6379 21.0363 33.5749C21.0363 33.551 21.1343 33.4738 21.2543 33.403C21.374 33.3321 21.5205 33.181 21.5794 33.067C21.6477 32.9347 21.7854 32.8277 21.9599 32.7707C22.1102 32.7219 22.3089 32.6227 22.4015 32.5509C22.4941 32.4788 22.7553 32.3667 22.9818 32.3015C23.2083 32.2363 23.4754 32.1072 23.5752 32.0147C23.7926 31.8125 24.2122 31.6884 24.6796 31.6881C24.9641 31.6875 25.0425 31.657 25.1401 31.5083C25.2709 31.3087 25.7553 31.0628 26.4953 30.8206C26.7706 30.7306 27.073 30.5728 27.1851 30.4607C27.2951 30.3508 27.4286 30.2466 27.4822 30.2286C27.5987 30.1899 27.7449 29.2509 27.8145 28.0982C27.841 27.6595 27.9087 26.9092 27.9648 26.4305C28.0211 25.9519 28.1015 24.5652 28.1434 23.3488C28.2454 20.3836 28.3585 18.7399 28.4877 18.3453C28.6004 18.0005 28.7122 15.1836 28.6266 14.8423C28.5566 14.5642 27.7027 14.8218 27.1921 15.2749C27.1269 15.3329 26.9101 15.4421 26.7107 15.518C26.5113 15.5936 26.2291 15.7365 26.0836 15.8351C25.938 15.934 25.7223 16.036 25.6038 16.0618C25.4857 16.0879 25.348 16.1673 25.298 16.2381C25.2482 16.309 25.0409 16.4513 24.8377 16.5543C24.6346 16.6569 24.4138 16.8241 24.3473 16.9258C24.2805 17.0272 24.1523 17.1289 24.0616 17.1516C23.9712 17.1743 23.8537 17.2914 23.8001 17.412C23.7469 17.5326 23.6326 17.6633 23.5462 17.7027C23.4596 17.742 23.3286 17.862 23.2549 17.9694C23.1808 18.0764 22.9767 18.2783 22.8006 18.4181C22.6249 18.5576 22.4091 18.7484 22.3209 18.8419C22.2327 18.9354 22.0736 19.0573 21.9672 19.1124C21.8519 19.1725 21.7552 19.2985 21.7274 19.4244C21.7019 19.5406 21.6125 19.6962 21.529 19.7702C21.4455 19.8438 21.2852 20.1052 21.1727 20.3508C21.0603 20.5964 20.9409 20.8083 20.9069 20.8222C20.8429 20.848 20.3244 21.8307 19.9804 22.5773C19.8727 22.811 19.6897 23.1101 19.5738 23.2421C19.404 23.4354 19.336 23.6256 19.2216 24.2257C19.1296 24.7078 19.0181 25.0608 18.905 25.2286C18.7614 25.4421 18.7223 25.6156 18.6839 26.213C18.6382 26.918 18.5006 27.9373 18.3497 28.6826C18.2905 28.9764 18.298 29.1029 18.3881 29.3186C18.4499 29.4666 18.551 30.0356 18.6124 30.5832C18.6861 31.2388 18.7715 31.6692 18.8628 31.8437C19.2159 32.5188 19.0858 33.1621 18.6209 33.0377C18.533 33.0141 18.3862 32.9943 18.2946 32.9936C18.2029 32.9933 18.0445 32.9089 17.9421 32.8066C17.7761 32.641 17.6724 32.6139 16.9905 32.5594C16.2644 32.5011 16.2143 32.4867 16.0162 32.2747C15.9012 32.1519 15.727 32.0348 15.629 32.0143C15.5311 31.9942 15.3698 31.9608 15.2709 31.9403C15.172 31.9199 14.9912 31.8056 14.8696 31.6865C14.7477 31.5675 14.616 31.4699 14.5773 31.4699C14.5385 31.4699 14.1605 31.1273 13.7378 30.7085C13.3147 30.2901 12.9402 29.9475 12.9059 29.9475C12.8712 29.9475 12.7944 29.853 12.7345 29.7374C12.675 29.6222 12.5272 29.4288 12.4063 29.3079C12.234 29.136 12.1864 29.0249 12.1864 28.7953C12.1864 28.5739 12.1341 28.4423 11.9719 28.2578C11.7467 28.0012 11.6109 27.5657 11.6081 27.0896C11.6068 26.8953 11.5318 26.6897 11.3706 26.4384L11.1346 26.0709V24.8605V23.6505L11.3608 23.3296C11.5385 23.078 11.5942 22.9133 11.6194 22.5644C11.6452 22.2055 11.6941 22.0669 11.8727 21.8446C11.9946 21.6931 12.1464 21.3896 12.21 21.1698C12.2796 20.9305 12.4116 20.6887 12.5398 20.5662C12.6573 20.4535 12.7732 20.2554 12.7975 20.1257C12.8514 19.8391 15.424 17.1469 15.9239 16.854C16.0952 16.7539 16.2524 16.6276 16.2729 16.5738C16.2937 16.5203 16.4597 16.4192 16.6424 16.3496C16.8248 16.28 16.9741 16.1956 16.9741 16.1626C16.9741 16.0942 18.1204 15.2274 18.2108 15.2274C18.3103 15.2274 19.1501 14.6467 19.1501 14.5778C19.1501 14.5419 19.3379 14.4427 19.5675 14.357C19.7968 14.2714 20.1477 14.1095 20.3471 13.9971C20.5465 13.8844 20.8168 13.7701 20.9472 13.7424C21.0779 13.715 21.2808 13.6117 21.3983 13.5128C21.5469 13.3878 21.7615 13.311 22.1039 13.26C22.4491 13.2083 22.6869 13.1224 22.9008 12.9719C23.1446 12.8006 23.3343 12.7414 23.8439 12.6765C24.2326 12.6274 24.5048 12.5569 24.5404 12.4964C24.7077 12.2136 25.469 11.9539 26.4269 11.8534C27.198 11.7722 27.4419 11.7171 27.7411 11.5565C28.2331 11.2926 34.4723 11.1323 35.738 11.3512ZM31.2644 13.8573C30.9651 13.9732 30.5896 14.0897 30.4303 14.1161C30.148 14.1628 30.1455 14.1659 30.3339 14.2286C30.446 14.266 30.5563 14.3753 30.5956 14.4883C30.646 14.6322 30.8429 14.7831 31.345 15.0614C31.7196 15.2692 32.1565 15.5649 32.3162 15.7183C32.7348 16.121 33.0778 16.5253 33.0778 16.6163C33.0778 16.6594 33.1714 16.8015 33.2864 16.9321C33.4102 17.0735 33.5299 17.3267 33.5818 17.5581C33.6294 17.7719 33.7469 18.1277 33.8423 18.3494C34.0348 18.795 34.0654 19.0157 34.1709 20.7022C34.2109 21.3402 34.2733 22.0745 34.3098 22.3336C34.4015 22.9816 34.4024 30.2337 34.3111 30.7813C34.2711 31.0206 34.1939 31.7382 34.1391 32.3765C34.0461 33.4644 33.9242 33.9972 33.7428 34.1092C33.7015 34.1348 33.6159 34.3338 33.5525 34.5513C33.4813 34.7957 33.3802 34.9777 33.2876 35.0271C33.2054 35.0712 33.0917 35.2176 33.0353 35.3527C32.9789 35.4875 32.8674 35.633 32.7877 35.6758C32.5515 35.8021 32.6205 35.8597 32.9739 35.8317C33.2394 35.8106 33.3213 35.7709 33.3846 35.6317C33.4281 35.5363 33.4873 35.4582 33.5166 35.4582C33.5803 35.4582 34.2887 34.7485 34.4922 34.4805C34.9663 33.857 35.9374 34.1577 36.0908 34.9755C36.1245 35.1553 36.2137 35.3023 36.3501 35.4031C36.4644 35.4878 36.5762 35.6134 36.598 35.6827C36.62 35.752 36.7378 35.8433 36.86 35.8858C36.9819 35.9283 37.1684 36.047 37.2739 36.1494C37.3798 36.2517 37.6078 36.4542 37.7805 36.5993C38.1238 36.8878 38.4788 37.5144 38.5544 37.9643C38.5806 38.1215 38.6486 38.3731 38.7053 38.5233C38.9441 39.1568 38.7478 40.3968 38.3324 40.882C38.0041 41.2656 37.6916 41.3311 36.1752 41.3339C34.6705 41.3367 34.821 41.451 36.38 41.4891L37.5423 41.5175L38.121 41.7921C39.5278 42.4593 39.3778 43.4313 37.8438 43.5859C36.9523 43.6757 36.3957 43.9021 35.3628 44.5948C35.2031 44.7019 34.9641 44.8266 34.8314 44.8716C34.6988 44.9166 34.4931 45.035 34.3747 45.1345C33.9075 45.5275 32.5285 45.5517 32.0639 45.1751C31.9631 45.0936 31.7498 44.9667 31.5898 44.8933C31.4294 44.8196 31.2524 44.7041 31.1963 44.6367C31.0524 44.4629 30.6016 44.2853 30.5178 44.369C30.4148 44.472 30.5257 44.5945 30.7216 44.5945C30.864 44.5945 30.9106 44.6487 30.9755 44.8899C31.0366 45.1166 31.104 45.2022 31.2656 45.2586C31.4411 45.3197 31.5126 45.427 31.6975 45.906C32.1845 47.168 32.2532 47.8286 31.9523 48.3545C31.534 49.0863 31.787 49.4585 32.9197 49.7774C33.7945 50.024 33.9636 50.1707 34.094 50.7974C34.2314 51.4595 34.1258 51.554 33.2391 51.5622C32.3023 51.5707 31.7715 51.6409 31.9171 51.7373C32.1322 51.8802 34.3999 51.8025 34.7568 51.64C35.2116 51.4331 36.1025 51.2659 36.7561 51.2646C37.445 51.2634 37.6299 51.2187 37.6866 51.0395C37.7379 50.8783 38.0142 50.7246 38.373 50.6575C38.5128 50.6317 38.8392 50.4809 39.0984 50.3222C39.3577 50.1638 39.6768 49.9843 39.8072 49.9232C39.9379 49.8622 40.1663 49.7031 40.315 49.5696C40.464 49.4364 40.6671 49.3029 40.767 49.273C40.8665 49.2434 41.0297 49.1474 41.1296 49.0598C41.2294 48.9726 41.4401 48.806 41.5986 48.6902C41.7567 48.574 41.9445 48.4209 42.0156 48.3498C42.0868 48.2786 42.1785 48.2204 42.2191 48.2204C42.3187 48.2204 43.0192 47.5015 43.1793 47.2357C43.2492 47.1192 43.4517 46.8279 43.6294 46.5886C44.192 45.8298 44.609 45.1978 44.7161 44.9421C44.7728 44.8061 45.0009 44.4191 45.223 44.0825C45.4447 43.7462 45.6265 43.4212 45.6265 43.3608C45.6268 43.3 45.7122 43.1253 45.8161 42.9725C45.9223 42.816 46.0694 42.4196 46.1516 42.0673C46.2322 41.7225 46.3586 41.3213 46.4319 41.1755C46.5053 41.03 46.631 40.4831 46.7113 39.9604C46.7914 39.4377 46.9192 38.8715 46.9952 38.7024C47.0711 38.5333 47.1539 38.1501 47.1788 37.851C47.2985 36.4252 47.4412 33.4974 47.4069 33.174C47.3858 32.9747 47.3341 32.1261 47.2925 31.2889C47.2075 29.5841 47.1035 28.5088 47.0125 28.3932C46.8855 28.232 46.7838 27.7754 46.6833 26.9174C46.6071 26.2643 46.5305 25.9293 46.3929 25.6481C46.2716 25.4003 46.1784 25.0375 46.1277 24.6156C46.0625 24.0746 46.0202 23.9408 45.8766 23.8202C45.6895 23.6627 45.5544 23.3627 45.5544 23.1038C45.5544 23.0141 45.4592 22.8497 45.3427 22.7379C45.2264 22.6265 45.011 22.2861 44.8642 21.9813C44.7177 21.6765 44.552 21.3455 44.4966 21.246C44.4411 21.1462 44.3085 20.8852 44.2017 20.6657C44.095 20.4465 43.9324 20.1757 43.8401 20.0643C43.7478 19.9528 43.6329 19.7308 43.585 19.5705C43.5371 19.4106 43.4394 19.2484 43.3686 19.2103C43.2974 19.1722 43.1742 18.9946 43.0951 18.8158C43.0161 18.6369 42.9244 18.4905 42.892 18.4905C42.7997 18.4905 42.1303 17.834 41.8931 17.5115C41.7759 17.3522 41.6191 17.1771 41.5441 17.123C41.4694 17.0685 41.2978 16.9136 41.1626 16.7785C41.0275 16.6431 40.8678 16.5326 40.8079 16.5326C40.7481 16.5326 40.5881 16.4268 40.452 16.297C40.1247 15.985 39.6887 15.6776 39.2487 15.4497C38.166 14.8882 37.5118 14.5749 37.4223 14.5746C37.3666 14.5743 37.1744 14.4767 36.9949 14.3573C36.7677 14.2062 36.5794 14.1404 36.3753 14.1401C35.9944 14.1398 35.2822 13.9527 34.9776 13.7736C34.5451 13.5188 31.9898 13.5764 31.2644 13.8573ZM105.542 29.3611C105.746 29.5063 105.939 30.6005 105.881 31.2889C105.832 31.8682 106.107 32.2537 106.323 31.9089C106.371 31.8308 106.526 31.7457 106.667 31.7193C106.808 31.6928 107.057 31.5745 107.22 31.4564C107.972 30.9116 108.82 30.7753 110.981 30.8505L112.393 30.8997L112.855 31.1582C113.11 31.3005 113.334 31.4611 113.355 31.5149C113.376 31.5691 113.523 31.6485 113.683 31.6916C113.842 31.7344 114.085 31.8815 114.222 32.0187C114.359 32.1557 114.519 32.2678 114.577 32.2678C114.732 32.2678 115.233 32.7427 115.333 32.9839C115.38 33.0979 115.498 33.2332 115.594 33.2849C115.691 33.3362 115.788 33.4363 115.81 33.5066C115.833 33.5771 116.028 33.851 116.245 34.1155C116.495 34.4197 116.68 34.733 116.75 34.9698C116.811 35.1751 116.94 35.4588 117.037 35.6002C117.154 35.7709 117.25 36.0788 117.325 36.5178C117.392 36.912 117.518 37.3346 117.638 37.566L117.839 37.9536L117.861 41.7631C117.883 45.787 117.849 46.446 117.588 47.0191C117.498 47.2149 117.382 47.6454 117.328 47.9754C117.275 48.3054 117.183 48.6505 117.123 48.7421C117.064 48.8341 116.936 49.1212 116.839 49.3804C116.67 49.8326 116.282 50.4863 116.125 50.5829C116.084 50.6084 115.989 50.7725 115.913 50.9479C115.836 51.1286 115.701 51.3012 115.602 51.3462C115.506 51.39 115.358 51.5496 115.273 51.7011C114.928 52.3141 113.725 53.3784 113.149 53.58C112.936 53.6546 112.609 53.802 112.424 53.9071C112.225 54.0199 111.925 54.1143 111.698 54.1357C111.485 54.1559 110.999 54.2066 110.619 54.2481C109.881 54.3288 107.958 54.1234 107.603 53.9263C107.518 53.8788 107.255 53.7393 107.02 53.6162C106.785 53.4931 106.499 53.3051 106.383 53.1983C105.894 52.7449 105.907 52.6013 105.904 58.4373L105.901 63.6291L105.668 63.8898C105.33 64.2686 105.195 64.3181 104.194 64.4289C103.498 64.506 103.247 64.563 103.102 64.677C102.906 64.831 101.871 65.1881 101.621 65.1881C101.418 65.1881 100.757 64.8411 100.755 64.7334C100.754 64.6843 100.746 61.9032 100.737 58.5532C100.725 54.2916 100.696 52.4083 100.64 52.2823L100.56 52.1029L100.447 52.3189C100.299 52.6026 99.4594 53.448 99.1904 53.5844C99.0744 53.6429 98.8905 53.7626 98.7818 53.8498C97.8651 54.586 94.0647 54.239 93.5137 53.3687C93.4507 53.2689 93.2917 53.0592 93.1606 52.9023C93.0296 52.7455 92.9222 52.5742 92.9222 52.522C92.9222 52.4694 92.8113 52.3037 92.6758 52.1539C92.5404 52.004 92.3942 51.7499 92.3511 51.5893C92.1655 50.9003 91.7478 50.8059 91.4486 51.3849C91.3368 51.6012 90.9087 52.111 90.5401 52.4669C90.4469 52.5569 90.3325 52.6687 90.2862 52.7153C90.2399 52.7616 90.0497 52.9527 89.8635 53.1401C88.7701 54.2393 85.0991 54.6776 83.5786 53.8901C83.3515 53.7727 83.0595 53.6533 82.9294 53.6253C82.7152 53.579 82.5435 53.4694 81.6559 52.812C81.1853 52.4634 80.7465 52.0159 80.6482 51.7839C80.5965 51.662 80.4403 51.4863 80.3004 51.3934C80.1609 51.3005 80.0371 51.1595 80.0257 51.0804C79.9791 50.7624 79.4408 50.9384 79.2748 51.326C79.1037 51.725 78.7705 52.1589 78.1695 52.7657C77.9253 53.0122 77.6724 53.2733 77.6075 53.3457C77.0484 53.9695 76.2017 54.2019 74.4975 54.1996C73.0986 54.1978 72.507 54.1064 72.1936 53.8445C72.0843 53.7531 71.9132 53.653 71.8134 53.6218C71.7138 53.5907 71.42 53.347 71.1607 53.0802C70.9011 52.8135 70.6028 52.5393 70.4973 52.4709C70.3918 52.4026 70.21 52.1608 70.0932 51.9331C69.9766 51.7058 69.7769 51.3238 69.65 51.0845C69.471 50.7473 69.3945 50.4699 69.3091 49.8518C69.2487 49.4131 69.1425 48.9399 69.0735 48.8004C68.8896 48.4279 68.8987 43.7727 69.089 40.9274L69.225 38.892L69.0716 38.2808C68.9875 37.9448 68.882 37.3925 68.8373 37.0534C68.7925 36.7146 68.7176 36.3679 68.6706 36.2835C68.624 36.1988 68.5084 35.9869 68.4142 35.8121C67.9836 35.0145 67.3697 34.7768 66.0864 34.9116C65.5323 34.9698 64.9221 35.178 64.9221 35.3093C64.9221 35.3496 64.7924 35.4491 64.6336 35.53C64.4748 35.6109 64.2975 35.769 64.2395 35.8811C64.1813 35.9932 64.0861 36.1248 64.0278 36.173C63.9696 36.2215 63.9012 36.3707 63.876 36.5049C63.8508 36.639 63.75 36.8673 63.6517 37.0118C63.3342 37.4794 63.2451 37.7074 62.9861 38.7122L62.7316 39.7L62.7004 46.4076C62.6755 51.8091 62.6507 53.1571 62.5722 53.3321C62.5187 53.4518 62.4384 53.6401 62.3939 53.7506C62.267 54.0649 62.0701 54.0935 60.0541 54.0935C57.8797 54.0935 57.9049 54.1014 57.7499 53.3788C57.5807 52.5903 57.6393 31.7388 57.8116 31.4013C58.074 30.8871 58.0605 30.8899 60.1533 30.8899C62.2386 30.8899 62.2084 30.8836 62.564 31.3965C62.7392 31.6491 62.7571 31.7319 62.736 32.1897C62.7168 32.6003 62.7379 32.7307 62.8428 32.8532L62.9732 33.0056L63.3991 32.6186C64.083 31.997 64.2887 31.8528 64.6708 31.7281C64.918 31.6472 65.068 31.5461 65.1483 31.4063C65.389 30.9872 66.694 30.7356 68.2589 30.8068C70.3625 30.9022 70.9342 31.0291 71.0886 31.4346C71.1254 31.5316 71.2656 31.6569 71.4001 31.713C71.8736 31.9111 72.5256 32.4187 72.8349 32.8305C73.0069 33.0594 73.2202 33.328 73.3087 33.4278C73.3972 33.5277 73.5257 33.8051 73.5938 34.0441C73.6621 34.2834 73.7966 34.6351 73.8924 34.8259C74.2379 35.5127 74.2871 37.0496 74.2131 44.8848C74.1803 48.3702 74.208 48.8476 74.4597 49.1499C74.5485 49.2566 74.6613 49.4667 74.7101 49.6162C74.7589 49.7655 74.8371 49.8886 74.884 49.8895C74.9306 49.8905 75.0506 49.955 75.1502 50.0331C75.7238 50.4815 77.2134 49.9034 77.5533 49.1008C77.6318 48.9156 77.7474 48.7248 77.8107 48.6766C78.1468 48.4209 78.3994 46.8805 78.2268 46.1399C77.9842 45.1015 78.0825 41.463 78.378 40.5341C78.435 40.3546 78.5172 39.8489 78.5607 39.41C78.6231 38.7815 78.6851 38.5204 78.8527 38.1775C78.9696 37.9382 79.1173 37.5138 79.1806 37.2348C79.2439 36.9555 79.4121 36.5149 79.5548 36.2558C79.6972 35.9967 79.9051 35.6012 80.0169 35.377C80.1288 35.1525 80.2699 34.95 80.3307 34.9267C80.3915 34.9034 80.536 34.6751 80.652 34.4197C80.7679 34.1644 80.8999 33.9323 80.9455 33.9039C80.9909 33.8759 81.075 33.7412 81.132 33.6045C81.1894 33.4675 81.3191 33.3176 81.4212 33.2714C81.5229 33.2251 81.6061 33.1445 81.6061 33.0925C81.6061 32.914 82.0417 32.5021 82.4223 32.3204C82.6317 32.2206 82.8828 32.0531 82.9801 31.9482C83.0844 31.8358 83.2699 31.7395 83.4312 31.7136C83.6023 31.6862 83.7453 31.6085 83.8124 31.5058C84.3882 30.6273 89.1992 30.5407 89.6597 31.4003C89.7029 31.4816 89.9161 31.6264 90.1332 31.7224C90.3855 31.8339 90.5584 31.9636 90.6123 32.0824C90.7672 32.4221 90.8671 32.3166 90.966 31.7099C91.0126 31.4233 91.0908 31.2375 91.2177 31.1103L91.402 30.9261L93.367 30.9038L95.3319 30.8811L95.6031 31.0691C96.076 31.3965 96.0463 30.8685 96.0759 39.4846C96.1112 49.7057 96.0715 49.3149 97.1463 50.0045C97.609 50.3014 98.8873 50.0624 99.0999 49.6392C99.1412 49.5567 99.2716 49.4072 99.3894 49.3067C99.5305 49.1864 99.6279 49.0129 99.6742 48.7991C99.7196 48.591 99.8159 48.4156 99.9419 48.3123C100.12 48.1659 100.143 48.0919 100.179 47.5396C100.213 47.0351 100.264 46.8428 100.47 46.4362L100.72 45.9438L100.758 37.7099C100.779 33.1813 100.803 29.4688 100.812 29.4603C101.144 29.1524 105.129 29.0689 105.542 29.3611ZM87.6821 33.9594C87.1725 34.0365 87.1013 34.068 86.9085 34.3023C86.7916 34.4443 86.5692 34.6178 86.4143 34.6877C86.2432 34.7645 86.063 34.9267 85.9569 35.0983C85.8605 35.2545 85.6954 35.4456 85.5905 35.5234C85.4853 35.6008 85.3086 35.8383 85.1981 36.0508C85.0875 36.2634 84.9064 36.5518 84.7961 36.6919C84.6855 36.8323 84.5558 37.0928 84.5076 37.2713C84.4597 37.4495 84.3283 37.7754 84.2156 37.9952C84.0489 38.3205 83.9969 38.55 83.9362 39.2289C83.8864 39.7837 83.7972 40.2447 83.67 40.6065L83.4785 41.1503L83.4826 43.4439C83.4863 45.3644 83.5059 45.7888 83.6035 46.0543C83.8574 46.7429 83.9239 47.0137 83.9711 47.5516C84.0146 48.0443 84.0486 48.1426 84.254 48.3724C84.3825 48.5157 84.5088 48.7475 84.535 48.887C84.569 49.0683 84.6392 49.1663 84.781 49.2305C84.89 49.2796 85.1426 49.4424 85.342 49.592C85.5414 49.7412 85.8517 49.9053 86.0312 49.956C86.2108 50.0067 86.3998 50.0826 86.4514 50.1245C86.8146 50.4208 88.509 50.0152 89.1689 49.4739C89.3775 49.3029 89.5888 49.1628 89.6383 49.1628C89.6881 49.1628 89.7797 49.0406 89.8424 48.8911C89.9048 48.7415 90.0393 48.5321 90.141 48.426C90.2645 48.2969 90.3596 48.0717 90.4277 47.7477C90.4837 47.4807 90.5949 47.1705 90.6749 47.0584C90.9477 46.6752 90.9679 46.242 90.9603 40.9104C90.9528 35.5331 90.9481 35.445 90.6381 35.0958C90.5496 34.996 90.4579 34.8593 90.4343 34.7916C90.4107 34.7242 90.2998 34.6105 90.188 34.5391C90.0758 34.4676 89.9394 34.3482 89.8843 34.2736C89.6383 33.9398 88.6967 33.8057 87.6821 33.9594ZM108.083 34.4484C107.943 34.4893 107.666 34.5687 107.466 34.625C106.982 34.762 106.171 35.525 106.025 35.9815C105.78 36.7417 105.742 36.9929 105.791 37.5093C105.855 38.1737 105.859 48.7966 105.795 48.9625C105.767 49.0372 105.808 49.1625 105.9 49.2793C105.983 49.3854 106.052 49.5161 106.052 49.5696C106.052 50.0032 106.987 50.5228 107.998 50.6506C109.346 50.8213 109.802 50.6673 110.652 49.7557C110.889 49.5022 111.154 49.2677 111.242 49.2343C111.351 49.1927 111.418 49.0869 111.453 48.9021C111.483 48.7399 111.592 48.5482 111.722 48.4263C111.908 48.2528 111.951 48.1432 112.007 47.6961C112.043 47.4067 112.153 47.0065 112.25 46.8069C112.492 46.3093 112.494 46.2949 112.578 45.0659C112.619 44.4676 112.7 43.7799 112.758 43.5374C112.956 42.7068 112.974 41.5338 112.802 40.6818C112.718 40.2649 112.617 39.5369 112.579 39.0645C112.499 38.0868 112.456 37.8611 112.319 37.7024C112.181 37.5437 112.027 37.0786 111.967 36.6431C111.931 36.3811 111.864 36.2265 111.738 36.1172C111.64 36.0322 111.53 35.883 111.493 35.786C111.456 35.6887 111.302 35.5457 111.151 35.4683C110.999 35.3905 110.689 35.1641 110.462 34.9645C109.92 34.4887 108.787 34.2431 108.083 34.4484ZM32.3524 36.1639C32.0525 36.1991 31.9271 36.2948 32.0371 36.4047C32.1187 36.4863 32.6425 36.2832 32.6425 36.1698C32.6425 36.1374 32.6343 36.116 32.6242 36.1223C32.6145 36.1289 32.4919 36.1475 32.3524 36.1639ZM30.9377 37.271C30.9132 37.311 30.9601 37.3434 31.0423 37.3434C31.1245 37.3434 31.1916 37.311 31.1916 37.271C31.1916 37.231 31.1447 37.1986 31.087 37.1986C31.0297 37.1986 30.9626 37.231 30.9377 37.271ZM25.9884 38.2049C25.5783 38.2777 25.5361 38.3391 25.8549 38.3986C26.214 38.466 27.5549 38.3633 27.4056 38.2795C27.2421 38.1882 26.3485 38.1413 25.9884 38.2049ZM27.8353 38.3384C27.9638 38.3545 28.1925 38.3548 28.3431 38.3391C28.4933 38.3233 28.3881 38.3104 28.1087 38.3101C27.8296 38.3095 27.7065 38.3224 27.8353 38.3384ZM24.3397 38.7887C24.3171 38.8259 24.3315 38.8769 24.3722 38.9017C24.4793 38.9682 25.1042 38.8621 25.0573 38.7856C25.0041 38.6999 24.393 38.7027 24.3397 38.7887ZM21.8075 41.2964C21.7382 41.4769 21.7526 41.8975 21.8295 41.9451C21.924 42.0037 22.0157 41.3389 21.9256 41.2489C21.8777 41.2013 21.838 41.2174 21.8075 41.2964ZM21.306 42.5884C21.2373 42.7638 21.2483 43.7213 21.3214 43.9059C21.3605 44.0038 21.3894 43.8741 21.4106 43.5069C21.4474 42.8793 21.3898 42.3749 21.306 42.5884ZM21.2965 45.8455C21.2644 45.9551 21.2644 46.1346 21.2965 46.2442L21.3545 46.4438L21.3816 46.2442C21.3964 46.1346 21.3964 45.9551 21.3816 45.8455L21.3545 45.6462L21.2965 45.8455Z" fill="white"/>
<path id="path2" fill-rule="evenodd" clip-rule="evenodd" d="M28.789 11.7844C28.3896 11.8389 27.9599 11.9466 27.7851 12.0357C27.5706 12.145 27.2143 12.2187 26.5875 12.2835C25.8819 12.3566 25.6179 12.4161 25.3271 12.5682C25.1221 12.6752 24.6782 12.8094 24.3229 12.8711C23.9729 12.9322 23.5389 13.0591 23.3587 13.1532C23.1785 13.2474 22.775 13.3771 22.4616 13.442C22.094 13.5179 21.8177 13.6218 21.6838 13.7342C21.5698 13.8305 21.3125 13.9634 21.1121 14.0299C20.9118 14.0963 20.7272 14.1845 20.7017 14.226C20.6762 14.2673 20.4717 14.3822 20.2474 14.4811C20.0232 14.5803 19.6786 14.7805 19.4814 14.9263C19.2839 15.0721 18.9685 15.2727 18.7799 15.3725C18.5915 15.472 18.2003 15.717 17.9108 15.9163C17.6213 16.1156 17.2137 16.3931 17.0048 16.5325C16.796 16.6724 16.4892 16.878 16.3232 16.9901C15.8538 17.3062 13.3168 19.9903 13.016 20.4884C12.9338 20.6251 12.7955 20.8121 12.7089 20.904C12.6226 20.9963 12.4852 21.2646 12.4039 21.5007C12.3227 21.7369 12.1781 22.0127 12.0826 22.1135C11.945 22.2596 11.8936 22.4268 11.8332 22.93C11.7916 23.2776 11.7081 23.6571 11.6483 23.7726C11.3603 24.3293 11.3449 25.3149 11.6142 25.9239C11.6933 26.1024 11.7903 26.5329 11.8297 26.8808C11.8861 27.3755 11.9475 27.5852 12.1113 27.8421C12.2266 28.0229 12.3832 28.334 12.4591 28.5333C12.5353 28.7326 12.6846 29.0226 12.7911 29.1779C12.8975 29.3331 12.9845 29.4861 12.9845 29.5186C12.9845 29.5507 13.1584 29.6921 13.3707 29.8331C13.583 29.9739 13.96 30.3011 14.2089 30.5599C14.4577 30.819 14.7655 31.1031 14.8928 31.1915C15.0203 31.2797 15.2279 31.4403 15.3539 31.5483C15.4802 31.6563 15.7089 31.786 15.8617 31.8361C16.0148 31.8865 16.2577 32.0052 16.4013 32.1003C16.6432 32.2599 17.1327 32.3525 18.1599 32.4328C18.5994 32.4671 18.6139 31.6192 18.1946 30.4519C17.9501 29.7727 17.9454 27.7096 18.1864 26.9381C18.2733 26.6588 18.3943 26.099 18.4545 25.6934C18.5149 25.2881 18.6318 24.7661 18.7143 24.5334C18.7966 24.3007 18.9144 23.9143 18.9758 23.675C19.0375 23.4357 19.2146 23.0279 19.3692 22.7688C19.5242 22.5093 19.7567 22.0688 19.8858 21.7898C20.1621 21.1934 21.0016 19.8876 21.3405 19.5271C21.4303 19.4317 21.5371 19.2736 21.5783 19.176C21.6905 18.909 23.2686 17.2697 23.6841 16.9882C24.4114 16.4957 24.7182 16.2743 24.9699 16.0612C25.111 15.9418 25.3854 15.7523 25.5798 15.6402C25.7738 15.5281 26.2428 15.2557 26.6221 15.035C27.001 14.8139 27.5397 14.5412 27.8188 14.4285C28.0982 14.3161 28.4264 14.1731 28.5483 14.1111C28.6702 14.0491 29.0945 13.9524 29.4914 13.897C29.9372 13.8343 30.3926 13.7166 30.684 13.5887L31.1556 13.3818L33.2229 13.3806C35.0524 13.3796 35.3278 13.3947 35.6169 13.5109C35.9773 13.6564 36.3903 13.7874 36.9951 13.9486C38.1536 14.2578 39.6108 15.0668 40.4767 15.882C40.6963 16.0886 41.0173 16.3194 41.1905 16.3953C41.5503 16.5527 42.471 17.4586 42.9697 18.146C43.1505 18.3954 43.3817 18.7018 43.4841 18.8274C43.5861 18.9527 43.7159 19.165 43.7723 19.2988C43.8287 19.4323 43.9881 19.6684 44.1267 19.8234C44.3405 20.0624 44.78 20.836 45.5939 22.406C46.0217 23.2313 46.2655 23.8611 46.3408 24.3344C46.3858 24.6174 46.503 25.0252 46.6016 25.2409C46.7008 25.4588 46.8284 25.9547 46.8883 26.3581C46.95 26.7709 47.0754 27.2549 47.1796 27.4826C47.2993 27.7439 47.3888 28.1202 47.4382 28.5702C47.4798 28.9486 47.5951 29.978 47.6947 30.8571C47.935 32.9788 47.9347 34.3284 47.6928 36.4734C47.4175 38.9197 47.3674 39.2295 47.1777 39.6638C47.082 39.8832 46.9409 40.3949 46.8637 40.8011C46.7868 41.2073 46.6719 41.64 46.6085 41.7628C46.5449 41.8852 46.4113 42.2999 46.3115 42.6844C46.2116 43.0686 46.0652 43.4738 45.9858 43.585C45.9067 43.6964 45.7943 43.9216 45.7363 44.0856C45.6783 44.25 45.5158 44.5246 45.3753 44.6962C45.2345 44.8678 45.1192 45.0438 45.1192 45.0873C45.1192 45.1947 44.1969 46.566 44.0479 46.6803C43.9821 46.7306 43.8454 46.8978 43.7442 47.0521C43.3322 47.6781 42.936 48.1404 42.6751 48.2988C42.5233 48.3907 42.2033 48.6423 41.9639 48.8574C41.7245 49.0724 41.3817 49.3325 41.2022 49.4352C41.0226 49.5381 40.7423 49.7636 40.5791 49.9365C40.403 50.1226 40.2172 50.2504 40.1221 50.2504C39.9091 50.2504 39.5673 50.4324 39.4407 50.6128C39.3755 50.7057 39.1582 50.8021 38.8378 50.8792C38.5625 50.9457 38.2018 51.0955 38.0364 51.212C37.7684 51.4013 37.6487 51.4312 36.9276 51.4891C36.3011 51.5395 36.0296 51.5965 35.7209 51.7423C34.573 52.2852 30.0266 52.1016 31.0507 51.5537C31.1373 51.5074 31.7512 51.4438 32.4149 51.412C33.9751 51.338 33.9953 51.3292 33.7739 50.7999C33.6627 50.5332 33.1961 50.3099 32.4638 50.1723C31.7894 50.0454 31.6202 49.9616 31.5112 49.7012C31.3632 49.3467 31.3833 48.6546 31.5547 48.2203C31.7872 47.6306 31.504 46.1144 31.0557 45.5486C30.9363 45.3977 30.8009 45.1921 30.7555 45.092C30.7048 44.9808 30.4865 44.8133 30.1951 44.6616C29.9327 44.5252 29.6477 44.3738 29.5617 44.3253C29.4757 44.2768 29.1465 44.1842 28.8296 44.12C28.513 44.0554 28.1971 43.9723 28.1275 43.9354C28.0421 43.8904 27.8232 43.9162 27.4578 44.0142C27.1592 44.0941 26.819 44.1596 26.7018 44.1596C26.4186 44.1596 26.2592 44.2261 26.2592 44.3445C26.2592 44.6127 25.4563 44.8026 25.3618 44.5567C25.2761 44.3331 26.7298 43.4345 27.1774 43.4345C27.3258 43.4345 27.6824 43.3683 27.9703 43.2877L28.4938 43.1407L29.2073 43.2953C30.0795 43.4842 31.0866 43.9864 31.4051 44.3914C31.4904 44.4994 31.7342 44.6449 31.9717 44.7286C32.2011 44.8099 32.5192 44.9254 32.6789 44.9859C33.0979 45.1446 33.6286 45.1333 33.8712 44.9604C33.9808 44.8826 34.2549 44.7497 34.4807 44.6653C34.7066 44.5809 34.8915 44.4811 34.8915 44.444C34.8915 44.3357 35.8985 43.716 36.429 43.4981C36.6961 43.3885 36.9815 43.2629 37.0634 43.2191C37.1453 43.1753 37.3998 43.1054 37.6295 43.0635C38.9424 42.8236 38.3199 41.9857 36.8278 41.9835C36.5408 41.9829 36.159 41.9381 35.9795 41.8837C35.7999 41.8292 35.4408 41.7606 35.1816 41.731C34.4385 41.6463 33.692 41.1289 32.8446 40.1109C32.7895 40.0444 32.6332 39.9087 32.4975 39.8089C31.904 39.3725 31.8867 39.2702 32.3929 39.1892C32.6654 39.1458 32.701 39.1603 32.8726 39.3848C32.9744 39.5186 33.1845 39.6726 33.3398 39.7274C33.6053 39.8212 33.7606 39.944 34.4858 40.6355C34.8606 40.9929 35.0606 41.0376 36.2863 41.0398C37.7492 41.0423 38.0125 40.8864 38.2201 39.8958C38.3637 39.2113 38.2122 38.0135 37.9082 37.43C37.8027 37.2275 36.9371 36.343 36.2271 35.712C36.0025 35.5127 35.7577 35.2293 35.6824 35.0822C35.4251 34.5781 34.8852 34.5022 34.6429 34.9358C34.6051 35.0038 34.4836 35.1408 34.3727 35.2406C34.2621 35.3404 34.0151 35.5722 33.8243 35.7561C33.6331 35.94 33.4116 36.1119 33.3319 36.1383C33.2519 36.1648 33.1086 36.2917 33.0128 36.4205C32.8317 36.6645 32.7 36.7738 31.7327 37.4835C31.2961 37.8044 31.0315 37.9414 30.6809 38.0292C30.4235 38.0938 30.0169 38.2332 29.7775 38.339C29.362 38.5229 29.2672 38.534 27.6906 38.5799L26.039 38.6278L25.6232 38.8451C25.3945 38.9644 25.0858 39.0847 24.9369 39.1121C24.367 39.2179 22.3976 41.1478 22.2156 41.7794C22.1617 41.9652 22.0354 42.1667 21.905 42.2741L21.6851 42.4555L21.6164 43.6521C21.5786 44.3102 21.5679 45.2246 21.5925 45.6843C21.63 46.3833 21.6177 46.5581 21.5163 46.7536C21.2041 47.3573 21.0523 46.8399 21.0321 45.1021C21.023 44.3246 21.012 43.4436 21.0079 43.1445C20.999 42.4993 21.051 42.2826 21.2797 42.008C21.3739 41.8953 21.4907 41.6343 21.5396 41.4283C21.5884 41.2221 21.6946 40.9938 21.7755 40.9208C21.8568 40.8477 22.0341 40.5675 22.1696 40.2982C22.3053 40.029 22.4408 39.8089 22.4701 39.8089C22.4997 39.8089 22.6808 39.6625 22.873 39.484C23.0648 39.3051 23.3738 39.0919 23.5594 39.0097C23.7449 38.9276 23.9147 38.8312 23.9367 38.7956C24.2249 38.3296 25.8302 37.8538 27.2489 37.8138C28.0163 37.7921 28.1757 37.7656 28.4891 37.6069C28.6869 37.5065 29.1216 37.355 29.4555 37.2697C30.26 37.0644 30.4547 36.9772 30.9395 36.6056C31.1647 36.4334 31.5046 36.1777 31.6955 36.0382C32.5882 35.3845 32.8648 35.0611 33.2919 34.171C33.4497 33.8422 33.6101 33.573 33.6479 33.573C33.8825 33.573 33.903 33.1325 33.9329 27.4819C33.9704 20.3228 33.938 19.3344 33.652 18.9023C33.5373 18.7298 33.399 18.3787 33.3445 18.1224C33.096 16.957 31.8921 15.5882 30.8292 15.2629C30.7294 15.2324 30.5114 15.114 30.3448 15C29.6168 14.5016 29.0189 14.8369 29.0114 15.7475C28.9944 17.8793 28.7288 21.0196 28.5404 21.3247C28.52 21.3578 28.4548 22.9445 28.3955 24.8505C28.2866 28.3734 28.2488 28.8605 28.0415 29.4399C27.9772 29.619 27.8915 29.9043 27.8509 30.0737C27.7189 30.6241 27.1296 31.1689 26.4895 31.3314C26.1994 31.405 25.8737 31.5278 25.7659 31.6044C25.5363 31.7675 25.0824 31.9041 24.7674 31.9048C24.6452 31.9051 24.2883 32.0357 23.9742 32.1951C23.6605 32.3547 23.3688 32.4851 23.3263 32.4854C23.2837 32.4854 23.0387 32.6145 22.7816 32.7726C22.5246 32.9306 22.2291 33.0786 22.1245 33.1016C22.0149 33.1256 21.7679 33.3331 21.5399 33.5922C21.3229 33.8394 21.0182 34.1562 20.8633 34.2966C20.7083 34.437 20.4635 34.682 20.3193 34.8413C20.175 35.0004 19.8742 35.3105 19.6502 35.53C19.4266 35.7498 19.1698 36.0763 19.0797 36.2558C18.9896 36.4353 18.875 36.6311 18.8246 36.691C18.7745 36.7508 18.6932 36.9303 18.6438 37.0896C18.5943 37.2492 18.4472 37.5755 18.3168 37.8148C18.1467 38.1268 18.0453 38.4552 17.958 38.9751C17.8912 39.3737 17.7649 39.9286 17.6774 40.2076C17.4471 40.9428 17.4502 42.7792 17.6833 43.5796C17.7703 43.8784 17.8764 44.3845 17.9193 44.7034C18.0116 45.3927 18.0976 45.6871 18.2733 45.9135C18.3452 46.0058 18.4576 46.2442 18.5234 46.4438C18.5893 46.6431 18.7162 46.9205 18.8054 47.06C18.8948 47.1995 19.0498 47.4797 19.15 47.6822C19.2744 47.9348 19.5831 48.2884 20.1296 48.8051C20.5684 49.2198 20.9767 49.6298 21.0365 49.7157C21.2469 50.0183 21.9072 50.6758 22.0439 50.7193C22.1201 50.7435 22.3246 50.8672 22.4981 50.9945C22.6717 51.1217 22.9769 51.3021 23.1763 51.3953C23.3757 51.4885 23.6208 51.6415 23.7203 51.7354C23.8202 51.8292 24.0391 51.9419 24.2067 51.9863C24.3746 52.0307 24.6096 52.1494 24.7293 52.2502C24.849 52.351 25.163 52.4933 25.4273 52.5663C25.6916 52.6397 26.0765 52.8154 26.2832 52.9571C26.7475 53.2758 26.9872 53.3687 27.3466 53.3687C27.5391 53.3687 27.6934 53.425 27.8418 53.5497C28.0242 53.7031 28.2381 53.7588 29.2275 53.9115C29.871 54.0107 30.4969 54.143 30.6179 54.2056C31.2835 54.5498 36.8999 54.5592 37.8654 54.2182C38.1646 54.1124 38.7528 53.9817 39.172 53.9279C39.7497 53.8536 40.0162 53.7821 40.2698 53.6335C40.4541 53.5255 40.8563 53.3891 41.1647 53.3302C41.7831 53.2119 41.7799 53.2134 42.1585 52.919C42.3053 52.805 42.6084 52.6485 42.8314 52.572C43.2065 52.4429 43.755 52.146 44.4029 51.7212C44.5475 51.6264 44.8401 51.4825 45.0531 51.4016C45.4632 51.2457 45.6201 51.1248 46.7125 50.1203C48.1253 48.8215 49.19 47.7411 49.2949 47.4996C49.3544 47.3626 49.5012 47.1176 49.6212 46.9558C50.0127 46.4268 50.1885 46.1595 50.386 45.791C50.4928 45.5917 50.6544 45.3307 50.7451 45.211C50.8358 45.0914 50.9977 44.7733 51.1052 44.5044C51.2123 44.2355 51.3918 43.8892 51.5036 43.7349C51.6155 43.5806 51.76 43.2468 51.8252 42.993C51.8901 42.7392 52.0202 42.4004 52.1144 42.2398C52.2083 42.0792 52.3384 41.6651 52.403 41.3197C52.4678 40.974 52.6052 40.507 52.7082 40.2819C52.8625 39.9446 52.9136 39.6666 52.998 38.7046C53.0733 37.8412 53.1508 37.3837 53.2941 36.9507C53.6774 35.7942 53.6236 32.0049 53.2034 30.569C53.1457 30.3725 53.0638 29.7525 53.0213 29.1911C52.9375 28.0906 52.8692 27.7401 52.6568 27.3239C52.5816 27.1765 52.4688 26.7357 52.4061 26.3446C52.3292 25.865 52.2297 25.5265 52.1015 25.3067C51.995 25.1247 51.87 24.7456 51.8183 24.4484C51.7421 24.0107 51.68 23.8655 51.469 23.6322C51.3282 23.476 51.2126 23.2823 51.2126 23.2014C51.2126 23.0396 50.8217 22.2243 50.7111 22.1563C50.673 22.1327 50.5719 21.9262 50.4865 21.6979C50.4008 21.4693 50.2578 21.1843 50.1684 21.0646C50.0789 20.945 49.9482 20.7003 49.8782 20.5208C49.808 20.3414 49.6763 20.1127 49.5859 20.0132C49.4952 19.9134 49.3679 19.6946 49.303 19.5268C49.2359 19.3533 48.9783 19.0085 48.7064 18.7288C48.4431 18.4584 48.0481 17.9838 47.8282 17.6746C47.6083 17.3657 47.4011 17.1129 47.3674 17.1129C47.3088 17.1129 46.9503 16.797 46.2142 16.0977C46.0255 15.9182 45.7309 15.6896 45.5599 15.5901C45.3889 15.4903 45.0761 15.2721 44.8644 15.1052C44.653 14.9383 44.3056 14.7144 44.0923 14.6077C43.8794 14.5009 43.6387 14.3532 43.5578 14.2792C43.4768 14.2053 43.2692 14.0947 43.0963 14.0336C42.9234 13.9729 42.6732 13.8277 42.5403 13.7112C42.3778 13.5686 42.1614 13.4732 41.8776 13.419C41.6457 13.3749 41.2929 13.2697 41.0935 13.185C40.8941 13.1003 40.4534 12.9593 40.1142 12.8711C39.7749 12.7832 39.3629 12.6425 39.1982 12.5584C38.8655 12.3887 38.1691 12.2558 37.6062 12.2549C37.4039 12.2546 36.9632 12.1714 36.6268 12.07C35.3035 11.6708 30.8198 11.5077 28.789 11.7844ZM35.2673 11.9715C35.5489 12.0149 35.9634 12.1148 36.1877 12.1932C36.4277 12.2769 36.9547 12.3632 37.4666 12.4026C38.4954 12.4819 38.68 12.5172 38.9805 12.6913C39.1052 12.7634 39.4757 12.872 39.8036 12.9328C40.1315 12.9936 40.5394 13.1249 40.7102 13.225C40.8812 13.3248 41.246 13.4423 41.521 13.4861C42.0782 13.5749 42.1932 13.6221 42.3948 13.845C42.4713 13.9294 42.7287 14.0976 42.9665 14.2182C43.2043 14.3391 43.5004 14.5142 43.6242 14.607C43.7483 14.6999 44.0151 14.8589 44.2171 14.96C44.4193 15.0608 44.6291 15.1974 44.6839 15.2633C44.7384 15.3291 44.916 15.4503 45.0783 15.5328C45.2405 15.615 45.4654 15.7595 45.5782 15.8537C45.6909 15.9478 45.8453 16.025 45.9209 16.025C46.0009 16.025 46.1064 16.1175 46.1729 16.2457C46.2356 16.3669 46.3682 16.4973 46.4677 16.5351C46.5673 16.5728 46.7043 16.7023 46.7726 16.8222C46.8407 16.9422 46.9541 17.059 47.0243 17.0817C47.0946 17.1044 47.3025 17.3572 47.4864 17.6434C47.8002 18.1321 48.886 19.2881 49.0312 19.2881C49.0674 19.2881 49.1522 19.4594 49.2189 19.6688C49.286 19.8782 49.4136 20.1146 49.5024 20.1946C49.5913 20.2743 49.7229 20.5026 49.7951 20.7022C49.8672 20.9015 49.9866 21.1314 50.0606 21.2129C50.1343 21.2948 50.261 21.5536 50.3416 21.7882C50.4222 22.0228 50.5331 22.2659 50.5879 22.3286C50.7457 22.5093 50.8988 22.8544 50.9527 23.1507C50.9798 23.3012 51.0919 23.5298 51.2012 23.6583C51.4476 23.9477 51.6164 24.3463 51.721 24.8841C51.767 25.1213 51.8901 25.4191 52.0111 25.5857C52.1843 25.8247 52.2291 25.9752 52.2672 26.4431C52.322 27.1192 52.4086 27.4278 52.6433 27.783C52.8027 28.0238 52.8241 28.1595 52.8859 29.3054C52.958 30.6414 52.9974 30.9094 53.2153 31.5426C53.3372 31.8975 53.3524 32.1693 53.3524 34.0078V36.0744L53.1533 36.6299C52.986 37.0965 52.9426 37.3768 52.8818 38.3806C52.8055 39.6471 52.7888 39.7365 52.5715 40.0344C52.4855 40.1521 52.3941 40.4887 52.3292 40.9249C52.2508 41.4513 52.162 41.7445 51.9727 42.1013C51.8338 42.3626 51.7204 42.6435 51.7204 42.7253C51.7204 42.8075 51.5704 43.123 51.3868 43.4266C51.2034 43.7298 50.976 44.2047 50.8815 44.4814C50.7873 44.7585 50.6582 45.0136 50.5952 45.0489C50.5322 45.0844 50.4008 45.2819 50.3035 45.4884C50.0751 45.973 49.6763 46.6566 49.5242 46.8248C49.4583 46.8972 49.3371 47.1022 49.2545 47.2801C49.172 47.4583 48.955 47.7345 48.772 47.8938C48.5893 48.0535 48.0972 48.5185 47.6786 48.9273C47.2603 49.336 46.8905 49.6704 46.8574 49.6704C46.824 49.6704 46.6101 49.8908 46.3817 50.16C46.1534 50.4292 45.8793 50.6862 45.7725 50.7315C45.6657 50.7766 45.5152 50.894 45.438 50.9923C45.3605 51.0908 45.1674 51.213 45.0087 51.2643C44.6779 51.3714 44.3021 51.5515 44.2489 51.6286C44.229 51.6576 44.0665 51.7555 43.8879 51.8459C43.7093 51.9366 43.4481 52.0862 43.3076 52.1787C43.1668 52.2713 42.9114 52.3692 42.7397 52.3963C42.568 52.4234 42.3233 52.5223 42.1957 52.6161C41.9037 52.8305 41.3748 53.0783 41.2094 53.0783C40.9741 53.0783 40.3107 53.3076 40.0269 53.4867C39.8297 53.6111 39.5639 53.687 39.1493 53.7374C37.8008 53.9011 37.6336 53.9367 37.4619 54.0979C37.2253 54.3202 35.7943 54.4116 33.3801 54.358L31.5424 54.3174L31.0913 54.0976C30.7473 53.9301 30.4705 53.8605 29.9252 53.8038C29.5321 53.7632 28.9997 53.665 28.7427 53.5853C28.4853 53.506 28.2289 53.4411 28.1725 53.4411C28.1161 53.4411 27.9356 53.3564 27.7719 53.2528C27.5611 53.1199 27.4074 53.0746 27.2477 53.0979C27.0744 53.1234 26.9034 53.0598 26.5137 52.8252C26.212 52.6435 25.7936 52.4681 25.485 52.3935C25.1986 52.3245 24.9091 52.2067 24.8417 52.1324C24.774 52.0578 24.5513 51.9426 24.3465 51.8761C24.1418 51.8097 23.8926 51.6806 23.7931 51.5886C23.6932 51.497 23.4778 51.3689 23.3143 51.304C23.1508 51.2394 22.9514 51.0981 22.8711 50.9904C22.7908 50.8827 22.5164 50.6881 22.2616 50.5577C21.9758 50.4119 21.6728 50.1795 21.4718 49.9516C21.2923 49.7482 20.9168 49.3426 20.6374 49.0501C19.5459 47.9077 19.3465 47.6684 19.1878 47.3094C19.0974 47.1047 18.9578 46.8752 18.8781 46.7993C18.7981 46.7234 18.6803 46.4778 18.6161 46.2539C18.5518 46.0297 18.4478 45.8039 18.3855 45.752C18.1807 45.5823 18.1351 45.4107 18.0636 44.5444C18.0248 44.0734 17.9294 43.4436 17.8516 43.1445C17.5712 42.0698 17.5832 41.428 17.9057 40.1713C17.9826 39.8722 18.0806 39.3186 18.1234 38.9411C18.1855 38.3989 18.2324 38.2314 18.3467 38.1435C18.4945 38.0305 18.7153 37.5783 18.7153 37.3894C18.7153 37.3324 18.8293 37.1157 18.9692 36.9085C19.1087 36.701 19.2231 36.4753 19.2231 36.4066C19.2231 36.338 19.4275 36.0719 19.6776 35.8156C19.9277 35.5593 20.2906 35.1619 20.4843 34.9323C20.678 34.7031 20.8793 34.5154 20.9316 34.5154C20.9839 34.5154 21.0907 34.4254 21.1694 34.3149C21.5213 33.8211 21.9021 33.4987 22.4638 33.2191C22.7898 33.0569 23.1032 32.8576 23.1599 32.7763C23.217 32.6954 23.4397 32.577 23.6551 32.5141C23.8706 32.4508 24.1185 32.3327 24.2064 32.2518C24.3188 32.1478 24.5633 32.0751 25.0348 32.0049C25.4027 31.9504 25.788 31.8484 25.8907 31.7788C26.1861 31.5785 26.4747 31.4702 26.721 31.4674C27.1557 31.4627 27.7885 30.8449 27.9268 30.29C27.969 30.1216 28.0349 29.9345 28.0736 29.8747C28.4765 29.2503 28.4919 29.1118 28.5449 25.6329C28.5811 23.2455 28.6907 22.0165 29.0952 19.4694C29.1396 19.1901 29.189 18.407 29.2048 17.7291C29.2675 15.058 29.2892 14.9607 29.7989 15.0535C29.9466 15.0806 30.1539 15.1631 30.2594 15.2371C30.3649 15.3111 30.6163 15.4097 30.8182 15.4563C31.0365 15.5067 31.2819 15.6288 31.4243 15.7579C32.5699 16.7986 32.5403 16.763 32.8871 17.5191C33.0979 17.9791 33.2229 18.3538 33.2229 18.5257C33.2229 18.7484 33.274 18.8479 33.4951 19.056L33.7669 19.3126V26.2636V33.2147L33.5367 33.3948C33.4097 33.494 33.2689 33.6876 33.2236 33.8246C32.9933 34.522 32.0795 35.6591 31.5185 35.9466C31.3988 36.0077 31.2765 36.0993 31.2466 36.1497C31.0964 36.4054 30.0266 36.9196 29.3651 37.0543C28.9934 37.1299 28.526 37.2388 28.3266 37.2965C28.1272 37.3538 27.6701 37.4202 27.311 37.4435C26.4529 37.4996 24.9469 37.9083 24.6773 38.158C24.5699 38.2575 24.3708 38.3762 24.2347 38.4215C24.0986 38.4672 23.8844 38.5828 23.7584 38.6785C23.6327 38.7745 23.4176 38.9011 23.2806 38.9603C22.8465 39.1467 22.2477 39.7182 22.0653 40.12C21.9727 40.3234 21.8215 40.5602 21.7292 40.6459C21.6293 40.7381 21.5276 40.957 21.4791 41.1843C21.4337 41.395 21.3125 41.6673 21.2095 41.7898C20.8803 42.1809 20.8686 42.2751 20.8828 44.4496C20.8985 46.867 21 47.3982 21.4151 47.2392C21.6719 47.1406 21.71 46.8484 21.7295 44.836C21.7503 42.6602 21.7576 42.6079 22.0474 42.458C22.202 42.378 22.2612 42.2826 22.2978 42.0553C22.335 41.8216 22.4354 41.6664 22.7608 41.338C22.9895 41.1075 23.3363 40.7262 23.5316 40.4906C23.7269 40.2554 24.0426 39.9575 24.2335 39.8288C24.424 39.7 24.6011 39.529 24.6266 39.4484C24.6748 39.296 24.7686 39.2623 25.3161 39.2015C25.5407 39.1766 25.6894 39.1108 25.7927 38.9905C26.0053 38.7437 26.1572 38.7213 27.6881 38.7128C29.224 38.7043 29.6278 38.652 30.1214 38.3982C30.3108 38.3009 30.6648 38.1819 30.9086 38.1341C31.1524 38.0862 31.4381 37.9763 31.544 37.89C31.6495 37.8034 31.9872 37.5666 32.2946 37.3635C32.6017 37.1601 33.0068 36.8197 33.1946 36.6066C33.3823 36.3937 33.5975 36.1849 33.6727 36.1427C33.748 36.1006 33.8715 35.9642 33.9471 35.8401C34.0227 35.7158 34.1985 35.5602 34.3374 35.4944C34.4763 35.4283 34.6073 35.3294 34.6285 35.2746C34.6496 35.2195 34.7954 35.109 34.9526 35.029L35.2383 34.8832L35.4226 35.1524C35.7225 35.5911 36.1603 36.0165 36.4791 36.1793C36.6432 36.2627 36.7774 36.366 36.7774 36.4085C36.7774 36.451 36.9651 36.6714 37.1944 36.8985C38.0024 37.6979 38.2821 38.9351 37.9366 40.1805C37.6956 41.0483 35.2043 41.1516 34.5113 40.3225C34.442 40.2394 34.3374 40.1713 34.2788 40.1713C34.2205 40.1713 34.0674 40.0404 33.9389 39.8804C33.7928 39.6987 33.6034 39.5589 33.4343 39.5085C33.2856 39.4638 33.0944 39.3338 33.0097 39.2191C32.7378 38.8514 31.8448 38.9808 31.8448 39.3882C31.8448 39.4764 32.0039 39.6911 32.2256 39.9024C32.4351 40.1024 32.8024 40.4538 33.0415 40.6833C33.2809 40.9132 33.549 41.1223 33.6368 41.1478C33.725 41.1733 33.8816 41.2948 33.9849 41.4176C34.1941 41.6661 34.5787 41.8308 34.9639 41.8368C35.1035 41.839 35.3813 41.9167 35.5813 42.0099C35.8582 42.1387 36.1269 42.1894 36.7059 42.2225C37.9111 42.2914 38.365 42.5163 37.6247 42.6778C37.4978 42.7055 37.3022 42.8053 37.1897 42.8995C37.0773 42.9936 36.8139 43.1205 36.6048 43.1813C36.0456 43.3438 35.3098 43.7569 34.8745 44.1527C34.5828 44.4182 34.3528 44.5476 33.9014 44.7L33.3105 44.8999L32.5268 44.7C31.7976 44.5139 31.7191 44.4761 31.3997 44.1565C30.8714 43.6287 30.2591 43.2934 29.4603 43.0941C28.0213 42.7357 28.176 42.7483 27.7221 42.9502C27.4959 43.0509 27.1182 43.1681 26.8829 43.2109C26.6473 43.2537 26.3046 43.379 26.1213 43.4899C25.9379 43.6004 25.6903 43.7402 25.5716 43.8004C25.4248 43.8747 25.3167 44.0135 25.2361 44.2317C25.1545 44.4525 25.0342 44.6061 24.854 44.7204C24.5563 44.9087 24.5236 45.0753 24.7387 45.3061C24.9652 45.5489 25.3889 45.3955 25.3889 45.0709C25.3889 44.9604 25.4796 44.9213 25.9149 44.8442C26.0645 44.8177 26.3033 44.7034 26.4457 44.5907C27.0448 44.1146 28.9937 44.113 29.6108 44.5879C29.7025 44.6584 29.9513 44.7777 30.1643 44.853C30.4834 44.966 30.5694 45.0347 30.6569 45.2457C30.7155 45.3861 30.856 45.6169 30.9691 45.7583C31.3024 46.1746 31.5052 47.3699 31.3704 48.1253C31.0828 49.7381 31.263 50.2762 32.1185 50.359C33.7477 50.5171 34.3698 51.2612 32.8808 51.2709C31.6375 51.2791 30.8525 51.367 30.6872 51.5168C30.0424 52.1 32.4754 52.4769 34.9195 52.1721C35.7511 52.0685 35.9092 52.0162 36.1077 51.7795C36.1729 51.7017 36.4646 51.6456 37.1075 51.5877C37.9391 51.5124 38.0327 51.4891 38.2201 51.3097C38.3713 51.1648 38.5512 51.093 38.9118 51.0332C39.3342 50.9633 39.4237 50.9201 39.584 50.7104C39.7434 50.5014 39.8118 50.468 40.083 50.468C40.3586 50.468 40.4248 50.4346 40.6188 50.1962C40.7407 50.0467 41.0094 49.8262 41.216 49.7066C41.4227 49.5869 41.795 49.2891 42.0432 49.0444C42.2918 48.7997 42.6279 48.5248 42.7904 48.4335C42.9526 48.3422 43.1643 48.1486 43.2604 48.0034C43.3565 47.8582 43.5367 47.6381 43.6608 47.5141C43.7849 47.39 43.8863 47.2411 43.8863 47.1831C43.8863 47.1249 43.9966 46.9929 44.1317 46.8903C44.3998 46.6859 45.1617 45.5782 45.2821 45.2183C45.3233 45.0945 45.4487 44.9075 45.5602 44.802C45.6805 44.6889 45.8116 44.4449 45.8818 44.204C45.9467 43.9801 46.0226 43.7969 46.05 43.7969C46.1571 43.7969 46.2825 43.4893 46.3924 42.9565C46.4558 42.6504 46.5685 42.3147 46.6432 42.2102C46.7947 41.9983 46.8968 41.6355 46.9714 41.0417C47.0013 40.8046 47.1185 40.4664 47.2606 40.2076C47.6017 39.5869 47.5901 39.6606 48.0941 34.9144C48.2128 33.7985 48.1133 31.8805 47.8402 30.0199C47.8197 29.8801 47.7699 29.3977 47.729 28.9477C47.6313 27.868 47.4886 27.3157 47.1818 26.8292C47.0669 26.6469 47.0001 26.3745 46.9446 25.8622C46.882 25.28 46.8334 25.1039 46.6813 24.9043C46.5436 24.7242 46.4731 24.505 46.4113 24.0686C46.3559 23.6782 46.2709 23.3938 46.1606 23.2313C46.0686 23.0959 45.9401 22.7981 45.8746 22.5688C45.8094 22.3396 45.7001 22.0871 45.632 22.0074C45.564 21.9274 45.3038 21.4419 45.0537 20.928C44.7176 20.2374 44.5059 19.9005 44.2426 19.6373C44.0466 19.4414 43.8863 19.2339 43.8863 19.176C43.8863 19.1184 43.7764 18.9486 43.6422 18.7987C43.508 18.6492 43.3426 18.4181 43.2749 18.2855C42.9539 17.6586 41.8001 16.4264 41.4233 16.3087C41.2819 16.2646 41.0516 16.116 40.9121 15.9784C40.1706 15.2488 39.1062 14.5012 38.5099 14.2912C38.2951 14.2156 38.0213 14.1035 37.9016 14.0421C37.7819 13.9804 37.4068 13.8677 37.0675 13.7915C36.7286 13.7153 36.3039 13.5745 36.1244 13.4794L35.7981 13.3059H33.2229H30.6478L30.3577 13.4782C30.1551 13.5985 29.8071 13.6898 29.2042 13.7811C28.6318 13.8674 28.2771 13.9584 28.1521 14.0503C28.0487 14.1265 27.7517 14.2594 27.4921 14.3457C27.2326 14.4317 26.8083 14.6322 26.549 14.7906C26.2901 14.9493 25.9638 15.1326 25.8239 15.1981C25.4002 15.3961 24.7381 15.8924 24.6436 16.0829C24.5926 16.1859 24.4464 16.2967 24.3009 16.343C24.161 16.3874 24.0174 16.4907 23.9815 16.5725C23.9455 16.6544 23.7673 16.7829 23.5852 16.8581C23.0676 17.0719 21.7352 18.4924 21.4684 19.1143C21.3962 19.2824 21.2715 19.4408 21.1906 19.4666C21.1099 19.4921 21.0214 19.5841 20.9937 19.671C20.9663 19.7579 20.8563 19.9112 20.7499 20.0117C20.4453 20.2988 20.0062 21.0026 19.6628 21.7536C19.4896 22.1324 19.2864 22.521 19.2114 22.617C19.1368 22.713 19.0249 22.9741 18.9632 23.197C18.9014 23.4199 18.7701 23.789 18.6715 24.0167C18.5666 24.2591 18.4438 24.7702 18.3757 25.2494C18.3118 25.6997 18.2003 26.1862 18.1278 26.331C17.7101 27.1645 17.7454 30.4113 18.1792 31.0731C18.2651 31.2045 18.307 31.4192 18.3108 31.7486L18.3162 32.2313L17.8812 32.2543C17.2597 32.287 16.8735 32.2137 16.6476 32.0197C16.4715 31.8685 16.0271 31.6875 15.8318 31.6875C15.7908 31.6875 15.5543 31.4919 15.306 31.2526C15.0575 31.0133 14.8276 30.8175 14.7948 30.8175C14.762 30.8175 14.4955 30.581 14.2023 30.2916C13.909 30.0026 13.5701 29.7138 13.4488 29.6499C13.3133 29.5787 13.1672 29.4036 13.0695 29.1961C12.9823 29.0104 12.8434 28.7909 12.7615 28.709C12.6793 28.6268 12.5671 28.4105 12.5123 28.2285C12.4575 28.0462 12.3283 27.8094 12.2253 27.7017C12.025 27.4929 11.8977 26.9498 11.8971 26.3008C11.8968 26.0971 11.8366 25.8357 11.7516 25.6691C11.5673 25.3083 11.5679 24.8993 11.7538 24.176C11.8351 23.8608 11.9182 23.4067 11.939 23.1674C12.007 22.3837 12.0348 22.2873 12.2156 22.2051C12.3422 22.1475 12.4115 22.0253 12.4795 21.7407C12.5303 21.5285 12.6311 21.3128 12.7035 21.2614C12.776 21.2101 12.9568 20.9818 13.1051 20.7538C13.2538 20.5259 13.5405 20.1764 13.7421 19.977C13.944 19.7774 14.2341 19.4512 14.3872 19.2519C14.8197 18.6882 16.2536 17.2306 16.4637 17.1412C16.5673 17.0968 16.778 16.9419 16.9321 16.7967C17.0861 16.6516 17.254 16.5325 17.3053 16.5325C17.3564 16.5325 17.4906 16.4573 17.6033 16.3653C17.7161 16.2731 17.9382 16.1232 18.0969 16.0319C18.2554 15.9402 18.4267 15.8061 18.4778 15.7337C18.5285 15.6609 18.7414 15.546 18.9509 15.4777C19.1604 15.4097 19.3809 15.3133 19.4407 15.2639C19.7652 14.9959 20.3111 14.6587 20.5448 14.5815C20.6916 14.533 20.9269 14.4153 21.0677 14.3199C21.2085 14.2241 21.4533 14.1114 21.6114 14.0686C21.7695 14.0261 21.9655 13.9067 22.0467 13.8038C22.1648 13.6536 22.3038 13.5972 22.7419 13.521C23.0431 13.4687 23.4286 13.3444 23.599 13.2445C23.806 13.1233 24.1131 13.0358 24.522 12.9816C24.8912 12.9325 25.2928 12.8242 25.5319 12.7089C25.8459 12.5578 26.0929 12.5061 26.7125 12.4614C27.2625 12.4218 27.598 12.3585 27.8386 12.2492C28.5666 11.9186 33.692 11.7271 35.2673 11.9715ZM35.8705 37.8837C35.3917 38.0969 35.3057 38.2093 35.3681 38.5412C35.4849 39.165 36.2643 39.4767 36.6542 39.056L36.8306 38.8658L36.6593 38.3765C36.5651 38.1076 36.4876 37.8803 36.4876 37.8718C36.4848 37.7411 36.1779 37.7471 35.8705 37.8837ZM36.5181 38.4845C36.6451 38.857 36.5455 39.0837 36.2548 39.0837C36.0337 39.0837 35.6894 38.8734 35.6884 38.7374C35.6878 38.6687 35.6676 38.539 35.6437 38.4496C35.6065 38.311 35.6475 38.2654 35.9146 38.1457C36.2895 37.9779 36.3588 38.0169 36.5181 38.4845ZM25.147 44.9267C25.1712 44.9893 25.1356 45.0955 25.0679 45.1622C24.9088 45.3187 24.6754 45.0813 24.8187 44.9087C24.9271 44.7777 25.0934 44.7869 25.147 44.9267Z" fill="#010101"/>
<path id="path3" fill-rule="evenodd" clip-rule="evenodd" d="M28.508 11.7057C28.2088 11.7533 27.821 11.8663 27.6459 11.957C27.4251 12.072 27.1157 12.1422 26.6306 12.1875C25.7052 12.2738 25.554 12.3087 25.1816 12.5229C24.9939 12.6309 24.6108 12.7477 24.2385 12.8107C23.8936 12.8689 23.4809 12.9848 23.3215 13.0676C23.1618 13.1507 22.9007 13.2632 22.741 13.3176L22.4509 13.4165L22.735 13.374C22.8909 13.3504 23.1691 13.2528 23.3524 13.1567C23.5361 13.0607 23.973 12.9322 24.3229 12.8711C24.6783 12.8094 25.1221 12.6753 25.3272 12.5682C25.6179 12.4161 25.8819 12.3566 26.5875 12.2836C27.2099 12.2193 27.5712 12.1447 27.7819 12.0373C28.8429 11.4964 34.7976 11.5184 36.6268 12.0701C36.9633 12.1715 37.4039 12.2546 37.6062 12.2549C38.1883 12.2558 38.8677 12.3903 39.2379 12.5777C39.425 12.6724 39.7069 12.7678 39.8644 12.7896C40.0216 12.8113 40.0852 12.811 40.0055 12.7889C39.9255 12.7669 39.6099 12.6369 39.3037 12.5002C38.8344 12.2905 38.635 12.2448 38.0343 12.2092C37.5555 12.1809 37.1072 12.1 36.6687 11.9633C35.5098 11.6015 30.2153 11.4343 28.508 11.7057ZM40.2956 12.8866C40.3753 12.9058 40.6528 13.0128 40.9121 13.1243C41.1713 13.2358 41.5304 13.346 41.71 13.369L42.0363 13.4111L41.7094 13.3161C41.5295 13.2638 41.165 13.1341 40.8992 13.0279C40.6333 12.9215 40.3561 12.8384 40.283 12.8431C40.1671 12.8503 40.1687 12.8557 40.2956 12.8866ZM32.5158 13.3963C32.9445 13.4089 33.6463 13.4089 34.0753 13.3963C34.5044 13.3834 34.1535 13.373 33.2954 13.373C32.4376 13.373 32.0867 13.3834 32.5158 13.3963ZM30.6478 13.6083C30.4012 13.7144 29.9003 13.8394 29.4915 13.897C29.0946 13.9527 28.6702 14.0491 28.5483 14.1111C28.4264 14.1732 28.0982 14.3161 27.8188 14.4285C27.5397 14.5413 27.0011 14.8139 26.6221 15.035C26.2429 15.2557 25.7738 15.5281 25.5798 15.6402C25.3854 15.7523 25.1111 15.9419 24.9699 16.0612C24.7183 16.2744 24.4114 16.4957 23.6841 16.9882C23.2686 17.2697 21.6905 18.909 21.5783 19.176C21.5371 19.2736 21.4303 19.4317 21.3405 19.5271C21.0016 19.8876 20.1621 21.1934 19.8858 21.7898C19.7567 22.0688 19.5242 22.5093 19.3692 22.7688C19.2146 23.0279 19.0375 23.4357 18.9758 23.675C18.9144 23.9143 18.7966 24.3007 18.7144 24.5334C18.6318 24.7661 18.515 25.2882 18.4545 25.6934C18.3943 26.099 18.2734 26.6589 18.1864 26.9382C17.9454 27.7096 17.9502 29.7727 18.1946 30.4519C18.6577 31.7404 18.6057 32.4621 18.0519 32.4313L17.736 32.4136L17.9899 32.5072C18.2938 32.6189 18.4768 32.5871 18.5742 32.4051C18.6655 32.2345 18.4731 30.9756 18.2541 30.3102C18.0267 29.62 18.034 27.8409 18.2677 27.0361C18.3562 26.731 18.4633 26.1979 18.5058 25.8512C18.548 25.5045 18.6744 24.9547 18.7865 24.6291C18.8986 24.3039 19.0281 23.852 19.0744 23.6253C19.1276 23.3652 19.241 23.1114 19.3818 22.9366C19.5047 22.7845 19.7589 22.3336 19.9473 21.9347C20.1356 21.536 20.4387 20.9932 20.6207 20.7284C20.8028 20.4639 21.0079 20.1386 21.0765 20.006C21.1452 19.8735 21.2948 19.6713 21.4089 19.5573C21.5232 19.443 21.6171 19.3111 21.6174 19.2645C21.618 19.147 23.5688 17.1507 23.7931 17.038C23.8926 16.9879 24.0886 16.8519 24.2281 16.7357C24.7605 16.2929 25.1608 16.0225 25.9329 15.5835C26.3717 15.3341 26.939 15.0063 27.1935 14.8549C27.448 14.7037 27.7744 14.5416 27.919 14.495C28.0632 14.4484 28.3373 14.3322 28.5276 14.2368C28.7449 14.1278 29.1576 14.0236 29.6376 13.9562C30.1022 13.891 30.5206 13.7865 30.7061 13.6895C30.8734 13.602 31.1739 13.5091 31.3733 13.4826L31.7358 13.4351L31.4095 13.4278C31.2054 13.4234 30.9203 13.4908 30.6478 13.6083ZM35.2541 13.5091C35.4736 13.561 35.7524 13.6564 35.8737 13.7207C35.9953 13.7852 36.3049 13.8759 36.5619 13.9225C37.6109 14.1127 39.3242 15.0098 40.3681 15.9154C40.6475 16.1579 40.9716 16.3978 41.0888 16.4488C41.555 16.6522 42.7678 17.9029 43.2563 18.6838C43.36 18.8498 43.4797 19.0072 43.5215 19.033C43.5638 19.0592 43.6482 19.2006 43.7093 19.3473C43.7704 19.4943 43.9099 19.7286 44.0199 19.8681C44.2646 20.1792 44.5198 20.6169 44.8987 21.3761C45.0575 21.6944 45.2717 22.0546 45.3747 22.1771C45.4777 22.2993 45.6305 22.6025 45.7143 22.851C45.7984 23.0994 45.9436 23.4153 46.0371 23.5532C46.1307 23.6911 46.212 23.8892 46.2173 23.9934C46.2258 24.1574 46.2312 24.1615 46.258 24.0242C46.2863 23.8788 46.0167 23.2219 45.5939 22.4061C44.78 20.8361 44.3406 20.0624 44.1267 19.8234C43.9881 19.6685 43.8287 19.4323 43.7723 19.2988C43.7159 19.165 43.5861 18.9527 43.4841 18.8274C43.3817 18.7018 43.1505 18.3954 42.9697 18.146C42.471 17.4586 41.5503 16.5527 41.1906 16.3953C41.0173 16.3194 40.6963 16.0886 40.4768 15.882C39.5267 14.9878 37.3791 13.8624 36.596 13.8488C36.5163 13.8476 36.2551 13.7644 36.0157 13.664C35.7763 13.5639 35.4172 13.4669 35.2178 13.4483L34.8553 13.4146L35.2541 13.5091ZM42.254 13.51C42.3737 13.5664 42.5328 13.6807 42.6071 13.7644C42.6818 13.8479 42.8994 13.9685 43.0913 14.0321C43.2831 14.0957 43.4812 14.1974 43.5316 14.2585C43.5824 14.3193 43.8161 14.4663 44.0511 14.585C44.2864 14.7034 44.6521 14.9374 44.8638 15.1046C45.0758 15.2718 45.3898 15.4903 45.5621 15.5901C45.7341 15.6896 46.0167 15.9148 46.1899 16.0902L46.5052 16.4088L46.3518 16.149C46.2674 16.0061 46.0945 15.8222 45.9672 15.7406C45.461 15.416 45.1287 15.1789 44.8206 14.9235C44.6433 14.7762 44.3522 14.592 44.1739 14.5135C43.9956 14.4355 43.7398 14.2884 43.6053 14.187C43.4705 14.0853 43.2585 13.9811 43.1338 13.9549C43.009 13.9285 42.809 13.8151 42.6893 13.7021C42.5696 13.5894 42.3737 13.477 42.254 13.4524L42.0363 13.4074L42.254 13.51ZM21.6404 13.6577C21.5276 13.7515 21.2646 13.8847 21.0554 13.9534C20.8466 14.022 20.6554 14.1108 20.6308 14.1505C20.6062 14.1902 20.3514 14.3297 20.0648 14.4603C19.7778 14.591 19.4304 14.7963 19.2924 14.9163C19.1544 15.0366 18.9273 15.1924 18.7878 15.2627C18.5471 15.3839 17.8034 15.8701 17.4096 16.1635C17.3098 16.2378 16.9478 16.4794 16.6054 16.7004C15.9165 17.1447 13.2204 19.8514 12.9565 20.3637C12.8812 20.5098 12.7454 20.7183 12.6547 20.8266C12.5643 20.9352 12.4333 21.1963 12.3636 21.4069C12.294 21.6176 12.1444 21.9032 12.0307 22.0421C11.894 22.2089 11.8278 22.3683 11.8348 22.5131L11.8458 22.7323L11.8767 22.515C11.894 22.3954 11.9863 22.2146 12.082 22.1135C12.1778 22.0128 12.3227 21.7369 12.404 21.5008C12.4852 21.2646 12.6226 20.9963 12.7089 20.9041C12.7955 20.8121 12.9338 20.6251 13.016 20.4884C13.3168 19.9903 15.8538 17.3062 16.3232 16.9901C16.4892 16.878 16.796 16.6724 17.0049 16.5326C17.2137 16.3931 17.6213 16.1157 17.9108 15.9163C18.2003 15.717 18.5915 15.472 18.7799 15.3725C18.9686 15.2727 19.2867 15.0699 19.4874 14.9216C19.688 14.7736 20.0128 14.5838 20.2087 14.4997C20.4046 14.4156 20.6138 14.3029 20.6737 14.249C20.7335 14.1949 20.9672 14.0818 21.1931 13.9975C21.4189 13.9134 21.6461 13.7928 21.6984 13.7301C21.7503 13.6675 21.8596 13.5891 21.9406 13.5563C22.0559 13.5094 22.0619 13.4952 21.967 13.4918C21.9003 13.4892 21.7532 13.5639 21.6404 13.6577ZM29.3226 14.7201C28.9752 14.9317 28.955 15.03 28.8725 16.8953C28.8044 18.4426 28.7351 19.1958 28.5134 20.8109C28.4724 21.11 28.4056 22.3664 28.3653 23.6026C28.1577 29.9701 27.9363 30.8524 26.4542 31.2218C26.1824 31.2895 25.8545 31.4164 25.7256 31.5039C25.4358 31.7007 25.0755 31.8295 24.7797 31.8424C24.5938 31.8506 24.5847 31.8582 24.7271 31.8849C24.964 31.9297 25.5174 31.7817 25.7609 31.6085C25.8715 31.5298 26.1994 31.4051 26.4895 31.3314C27.1296 31.1689 27.7189 30.6242 27.8509 30.0737C27.8916 29.9043 27.9772 29.6191 28.0415 29.4399C28.2488 28.8605 28.2866 28.3734 28.3956 24.8505C28.4548 22.9445 28.52 21.3578 28.5405 21.3248C28.7288 21.0196 28.9944 17.8793 29.0114 15.7476C29.019 14.8369 29.6168 14.5016 30.3448 15C30.5114 15.114 30.7294 15.2324 30.8293 15.263C31.8921 15.5882 33.096 16.957 33.3445 18.1224C33.399 18.3787 33.5408 18.7349 33.6598 18.9143C33.9226 19.3108 33.9383 19.2604 33.697 18.7972C33.5987 18.6086 33.4812 18.2748 33.4362 18.0553C33.2277 17.0436 32.1415 15.7416 31.1197 15.2784C30.8604 15.1609 30.5177 14.9755 30.358 14.8665C29.9476 14.5863 29.6184 14.5397 29.3226 14.7201ZM46.9188 16.7404C47.1308 16.9451 47.3321 17.1129 47.3664 17.1129C47.4005 17.1129 47.6084 17.3657 47.8282 17.6746C48.0481 17.9839 48.4431 18.4584 48.7065 18.7289C48.9783 19.0085 49.236 19.3533 49.3031 19.5268C49.368 19.6946 49.4952 19.9135 49.5859 20.0133C49.6763 20.1128 49.808 20.3414 49.8783 20.5209C49.9482 20.7003 50.0789 20.945 50.1684 21.0647C50.2578 21.1843 50.4008 21.4693 50.4865 21.6979C50.5719 21.9262 50.673 22.1327 50.7111 22.1564C50.8217 22.2244 51.2126 23.0396 51.2126 23.2014C51.2126 23.2824 51.3282 23.476 51.469 23.6322C51.6801 23.8655 51.7421 24.0107 51.8183 24.4484C51.87 24.7456 51.9951 25.1247 52.1015 25.3068C52.2285 25.5243 52.3289 25.8638 52.4033 26.3267C52.4644 26.7083 52.5995 27.2067 52.7038 27.4344C52.8081 27.6621 52.9218 28.0676 52.9561 28.3359L53.0191 28.8233L52.9911 28.3035C52.9719 27.948 52.895 27.6136 52.7485 27.2477C52.6304 26.9529 52.4972 26.4693 52.4524 26.1724C52.4058 25.8653 52.283 25.461 52.167 25.234C52.0552 25.0149 51.9226 24.602 51.8731 24.3174C51.8067 23.937 51.7355 23.755 51.6051 23.6328C51.5074 23.5409 51.3795 23.3041 51.3206 23.1064C51.262 22.9086 51.0708 22.515 50.896 22.2319C50.7212 21.9488 50.5385 21.594 50.4903 21.4435C50.4418 21.2929 50.324 21.0769 50.2285 20.9633C50.1331 20.8499 49.9916 20.6097 49.9145 20.4295C49.837 20.2491 49.7356 20.0778 49.6886 20.0489C49.6414 20.0199 49.5084 19.785 49.3925 19.5271C49.2766 19.2689 49.1216 19.0038 49.0479 18.9373C48.8173 18.7304 48.0541 17.8176 47.8156 17.4637C47.6903 17.2779 47.4647 17.0509 47.3148 16.9595C47.1645 16.8679 46.9991 16.7347 46.9472 16.6636C46.8952 16.5921 46.7812 16.4964 46.6933 16.4507C46.6057 16.405 46.7071 16.5354 46.9188 16.7404ZM33.9011 19.9408C33.9011 20.2797 33.9137 20.4185 33.9289 20.2488C33.9443 20.0794 33.9443 19.802 33.9289 19.6326C33.9137 19.4632 33.9011 19.6017 33.9011 19.9408ZM33.9786 26.3944C33.9777 29.4849 33.995 31.394 34.0171 30.6361C34.0391 29.8785 34.0397 27.3497 34.0186 25.0164L33.9802 20.7747L33.9786 26.3944ZM11.7607 23.095C11.7547 23.2147 11.664 23.4921 11.5585 23.7112C11.2851 24.2812 11.2652 25.467 11.5216 25.9545C11.6146 26.1314 11.7192 26.474 11.7541 26.7158L11.8174 27.1557L11.7925 26.7168C11.7784 26.4655 11.6946 26.1091 11.5966 25.883C11.3878 25.4022 11.3739 24.5217 11.567 24.0012C11.7768 23.4351 11.8341 23.2005 11.8023 23.0364C11.7787 22.9158 11.7686 22.93 11.7607 23.095ZM46.3203 24.5586C46.3402 24.7655 46.4353 25.1081 46.532 25.32C46.6287 25.5319 46.7613 26.0436 46.8265 26.4567C46.8921 26.8698 47.0247 27.418 47.1211 27.6747C47.2222 27.9429 47.3274 28.4408 47.3683 28.8451C47.4077 29.2321 47.5123 30.2173 47.6011 31.0351C47.7948 32.8167 47.8065 34.5851 47.6332 35.8474C47.568 36.3207 47.4956 37.0222 47.4723 37.4064C47.4235 38.2012 47.2581 39.1445 47.1018 39.5189C47.0433 39.6584 46.9173 40.1559 46.8212 40.6242C46.7254 41.0924 46.6007 41.5657 46.5443 41.6756C46.4876 41.7855 46.3559 42.197 46.2517 42.5897C46.1474 42.9826 45.999 43.3923 45.9222 43.5003C45.8453 43.6083 45.7253 43.8416 45.656 44.0189C45.5864 44.1959 45.4371 44.4484 45.324 44.5797C45.2109 44.711 45.0228 45.0048 44.906 45.2322C44.7141 45.6062 44.5292 45.8783 43.9534 46.6337C43.8504 46.7685 43.5767 47.1353 43.3448 47.4486C43.113 47.7619 42.7926 48.1045 42.6326 48.21C42.4726 48.3152 42.2568 48.483 42.1529 48.5828C41.8795 48.8454 41.2025 49.3448 40.942 49.4764C40.8189 49.5385 40.6308 49.7041 40.5237 49.8445C40.3889 50.0212 40.2481 50.1147 40.0657 50.149C39.9205 50.1761 39.6826 50.3062 39.5368 50.4378C39.356 50.6012 39.1043 50.7237 38.7465 50.8229C38.4579 50.9029 38.1228 51.0515 38.0018 51.1532C37.8808 51.2549 37.7271 51.3409 37.6603 51.344C37.5759 51.3481 37.5684 51.3613 37.6358 51.3884C37.6887 51.4095 37.8682 51.3308 38.0346 51.2136C38.2012 51.0962 38.5619 50.946 38.8378 50.8792C39.1582 50.8021 39.3755 50.7057 39.4407 50.6128C39.5674 50.4324 39.9091 50.2504 40.1221 50.2504C40.2172 50.2504 40.4031 50.1226 40.5791 49.9365C40.7423 49.7636 41.0227 49.5382 41.2022 49.4352C41.3818 49.3325 41.7245 49.0724 41.9639 48.8574C42.2033 48.6423 42.5233 48.3907 42.6751 48.2988C42.936 48.1404 43.3322 47.6782 43.7443 47.0522C43.8454 46.8979 43.9821 46.7307 44.0479 46.6803C44.1969 46.566 45.1192 45.1947 45.1192 45.0873C45.1192 45.0439 45.2345 44.8678 45.3753 44.6962C45.5158 44.5246 45.6784 44.25 45.7363 44.0857C45.7943 43.9216 45.9067 43.6965 45.9858 43.585C46.0652 43.4739 46.2117 43.0686 46.3115 42.6844C46.4114 42.3 46.5449 41.8853 46.6086 41.7628C46.6719 41.64 46.7868 41.2073 46.8637 40.8011C46.9409 40.3949 47.082 39.8833 47.1778 39.6638C47.3674 39.2296 47.4175 38.9197 47.6928 36.4734C47.9347 34.3284 47.935 32.9788 47.6947 30.8572C47.5951 29.978 47.4798 28.9487 47.4383 28.5702C47.3888 28.1202 47.2994 27.7439 47.1796 27.4826C47.0757 27.2559 46.9494 26.7697 46.888 26.3581C46.8281 25.9592 46.6993 25.4535 46.601 25.234C46.503 25.0149 46.3915 24.6883 46.3534 24.5088L46.2841 24.1826L46.3203 24.5586ZM11.8316 27.344C11.8275 27.4479 11.922 27.6762 12.0417 27.8516C12.1614 28.0273 12.3073 28.3277 12.3655 28.5195C12.5161 29.0145 12.971 29.6773 13.3112 29.8974C13.4706 30.0007 13.8312 30.3234 14.1119 30.6144C14.3929 30.9057 14.7192 31.2051 14.8373 31.2801C14.9555 31.355 15.1338 31.4901 15.2333 31.5801C15.3331 31.6702 15.4963 31.7675 15.5962 31.7965C15.7934 31.8538 15.7943 31.8544 14.9914 31.2725C14.814 31.144 14.4637 30.8254 14.2127 30.564C13.962 30.303 13.583 29.9739 13.3707 29.8332C13.1584 29.6921 12.9845 29.5507 12.9845 29.5186C12.9845 29.4862 12.8979 29.3331 12.7917 29.1779C12.6859 29.0227 12.5252 28.709 12.4351 28.4804C12.3451 28.2518 12.1983 27.9625 12.1091 27.8375C12.0203 27.7124 11.923 27.5081 11.893 27.3831C11.8429 27.1727 11.8382 27.1696 11.8316 27.344ZM53.0638 29.5123C53.0805 29.8911 53.142 30.3644 53.2009 30.5637C53.6233 31.9952 53.6787 35.7904 53.2941 36.9508C53.1508 37.3837 53.0733 37.8412 52.998 38.7047C52.9136 39.6666 52.8626 39.9447 52.7082 40.2819C52.6052 40.507 52.4679 40.974 52.403 41.3197C52.3384 41.6652 52.2083 42.0792 52.1144 42.2398C52.0202 42.4004 51.8902 42.7392 51.8253 42.993C51.7601 43.2468 51.6155 43.5806 51.5037 43.7349C51.3918 43.8892 51.2123 44.2356 51.1052 44.5045C50.9978 44.7734 50.8359 45.0914 50.7451 45.2111C50.6544 45.3307 50.4928 45.5917 50.386 45.7911C50.1885 46.1595 50.0128 46.4268 49.6212 46.9558C49.5012 47.1177 49.3544 47.3626 49.2949 47.4996C49.19 47.7411 48.1253 48.8215 46.7125 50.1204C45.6201 51.1249 45.4632 51.2458 45.0531 51.4016C44.8401 51.4826 44.5475 51.6265 44.4029 51.7212C43.755 52.146 43.2066 52.4429 42.8314 52.572C42.6084 52.6486 42.3053 52.8051 42.1585 52.919C41.7799 53.2131 41.7828 53.2122 41.1685 53.3296C40.8626 53.3882 40.4431 53.5299 40.2364 53.6445C39.9447 53.8061 39.6912 53.8731 39.1071 53.9421C38.6929 53.9909 38.1867 54.0973 37.9826 54.1786C37.7785 54.2601 37.3831 54.354 37.1037 54.3873L36.596 54.4484L37.14 54.4207C37.4392 54.4053 37.8963 54.3259 38.1555 54.2441C38.4151 54.1625 38.9402 54.0495 39.3229 53.9931C39.7598 53.9286 40.1574 53.8199 40.392 53.7012C40.5974 53.597 41.0025 53.4625 41.2923 53.4021C41.6486 53.3281 41.9384 53.2106 42.1882 53.0396C42.391 52.9005 42.7624 52.7065 43.0128 52.6083C43.2633 52.5103 43.5704 52.3522 43.6954 52.2572C43.8202 52.1621 43.9931 52.0619 44.0794 52.0345C44.1657 52.0075 44.3554 51.8903 44.5009 51.7748C44.6467 51.6592 44.935 51.5103 45.1419 51.4441C45.3489 51.378 45.5791 51.2539 45.6535 51.168C45.7275 51.082 45.8655 50.9614 45.9597 50.8994C46.1235 50.7917 46.4952 50.4715 47.4688 49.5996C47.7126 49.3814 48.0427 49.0529 48.2021 48.87C48.3618 48.687 48.652 48.3926 48.8469 48.2157C49.0429 48.0381 49.2643 47.7481 49.3415 47.5676C49.4187 47.3881 49.5484 47.1699 49.63 47.0827C49.8319 46.8673 50.2235 46.2961 50.4415 45.9C50.5401 45.7205 50.7023 45.4648 50.8018 45.332C50.9014 45.1991 51.0573 44.9053 51.148 44.6792C51.2384 44.4534 51.4195 44.1052 51.5503 43.9059C51.681 43.7066 51.825 43.3636 51.87 43.1445C51.9154 42.925 52.0319 42.6073 52.1292 42.4382C52.2266 42.2691 52.3699 41.8286 52.4483 41.4592C52.5265 41.0899 52.6758 40.5958 52.7803 40.3612C52.929 40.0278 52.9857 39.7422 53.0405 39.0557C53.1124 38.1542 53.21 37.607 53.4239 36.9086C53.7776 35.7539 53.6816 31.663 53.2705 30.3685C53.2109 30.1811 53.1335 29.757 53.0982 29.4257L53.0339 28.8233L53.0638 29.5123ZM16.2126 32.0792C16.452 32.2203 16.7132 32.334 16.7929 32.3318C16.9006 32.3289 16.8874 32.3126 16.7415 32.2685C16.6335 32.236 16.4539 32.145 16.3427 32.0666C16.2312 31.9882 16.0586 31.9013 15.9587 31.8736C15.8589 31.8456 15.9732 31.9385 16.2126 32.0792ZM24.0092 32.0748C23.8703 32.168 23.5225 32.333 23.2362 32.4417C22.9498 32.55 22.678 32.6841 22.632 32.7395C22.586 32.795 22.3958 32.8982 22.2096 32.9694C21.9796 33.0569 21.7425 33.2386 21.4719 33.5346C21.2523 33.7742 20.9282 34.1014 20.7518 34.2614C20.5754 34.421 20.3306 34.666 20.2081 34.8055C20.0856 34.9453 19.8254 35.2151 19.6301 35.4056C19.2357 35.7901 18.7043 36.6044 18.5695 37.0304C18.5213 37.1828 18.3849 37.4826 18.2664 37.697C18.1307 37.9423 17.9993 38.3526 17.9117 38.8048C17.8352 39.1996 17.7064 39.7192 17.6254 39.9591C17.3252 40.8496 17.3211 42.8032 17.6172 43.7846C17.6975 44.0507 17.8166 44.5785 17.8815 44.9573C17.964 45.44 18.0607 45.7438 18.2037 45.9724C18.3162 46.1519 18.463 46.4681 18.5298 46.6753C18.5969 46.8824 18.7134 47.1303 18.7887 47.2263C18.8643 47.322 19.001 47.5635 19.0927 47.7625C19.2136 48.0255 19.4883 48.3407 20.0934 48.9112C20.5524 49.3439 20.9767 49.7687 21.0365 49.8556C21.3922 50.371 22.2061 51.0008 23.0314 51.3985C23.2705 51.514 23.5276 51.6768 23.6019 51.7603C23.6766 51.844 23.9049 51.9665 24.1097 52.033C24.3144 52.0994 24.5671 52.2329 24.671 52.3296C24.775 52.4263 25.0629 52.5667 25.3114 52.6419C25.5596 52.7172 25.9883 52.9149 26.264 53.0812C26.6376 53.307 26.8763 53.3973 27.2005 53.4354C27.4975 53.4704 27.6897 53.5372 27.8049 53.6458C27.9385 53.7708 28.2031 53.8429 29.0571 53.9859C29.6527 54.086 30.3678 54.2324 30.6462 54.3118C30.9247 54.3914 31.3002 54.4519 31.4804 54.4468C31.7676 54.4383 31.7487 54.4302 31.3285 54.381C31.0649 54.3502 30.7474 54.2727 30.6232 54.2085C30.4991 54.1442 29.871 54.0107 29.2275 53.9116C28.2381 53.7588 28.0242 53.7031 27.8418 53.5498C27.6934 53.4251 27.5391 53.3687 27.3466 53.3687C26.9872 53.3687 26.7475 53.2758 26.2832 52.9571C26.0765 52.8154 25.6916 52.6397 25.4273 52.5664C25.163 52.4933 24.849 52.351 24.7293 52.2502C24.6096 52.1495 24.3746 52.0308 24.2067 51.9864C24.0391 51.942 23.8202 51.8292 23.7203 51.7354C23.6208 51.6416 23.3757 51.4885 23.1763 51.3953C22.9769 51.3021 22.6717 51.1217 22.4981 50.9945C22.3246 50.8673 22.1201 50.7435 22.0439 50.7193C21.9072 50.6758 21.247 50.0184 21.0365 49.7158C20.9767 49.6298 20.5684 49.2198 20.1297 48.8051C19.5831 48.2884 19.2744 47.9348 19.15 47.6822C19.0498 47.4798 18.8949 47.1995 18.8054 47.06C18.7162 46.9205 18.5893 46.6431 18.5235 46.4438C18.4576 46.2442 18.3452 46.0058 18.2734 45.9136C18.0976 45.6872 18.0116 45.3927 17.9193 44.7035C17.8765 44.3845 17.7703 43.8785 17.6834 43.5797C17.4503 42.7792 17.4471 40.9428 17.6774 40.2076C17.7649 39.9286 17.8913 39.3738 17.958 38.9751C18.0453 38.4553 18.1467 38.1268 18.3168 37.8148C18.4472 37.5755 18.5943 37.2493 18.6438 37.0896C18.6933 36.9303 18.7745 36.7508 18.8246 36.691C18.875 36.6312 18.9897 36.4353 19.0798 36.2558C19.1698 36.0763 19.4266 35.7498 19.6502 35.53C19.8742 35.3105 20.175 35.0004 20.3193 34.8414C20.4636 34.682 20.7083 34.4371 20.8633 34.2966C21.0183 34.1562 21.3229 33.8394 21.5399 33.5922C21.768 33.3331 22.0149 33.1256 22.1245 33.1016C22.2291 33.0787 22.5246 32.9307 22.7816 32.7726C23.0387 32.6145 23.2837 32.4854 23.3263 32.4854C23.3688 32.4851 23.6605 32.3547 23.9742 32.1951C24.2883 32.0358 24.4814 31.9051 24.4036 31.9051C24.3255 31.9051 24.1481 31.9813 24.0092 32.0748ZM33.8841 32.6013C33.8756 33.1325 33.7685 33.573 33.6479 33.573C33.6101 33.573 33.4497 33.8422 33.2919 34.171C32.8648 35.0612 32.5882 35.3845 31.6955 36.0382C31.5046 36.1777 31.1647 36.4334 30.9395 36.6057C30.4547 36.9772 30.2601 37.0644 29.4555 37.2697C29.1216 37.3551 28.6869 37.5065 28.4891 37.607C28.1757 37.7657 28.0163 37.7921 27.249 37.8139C25.8302 37.8538 24.225 38.3296 23.9367 38.7957C23.9147 38.8312 23.7449 38.9276 23.5594 39.0098C23.3738 39.092 23.0648 39.3051 22.873 39.484C22.6808 39.6625 22.4997 39.8089 22.4701 39.8089C22.4408 39.8089 22.3054 40.029 22.1696 40.2983C22.0341 40.5675 21.8568 40.8477 21.7755 40.9208C21.6946 40.9938 21.5884 41.2221 21.5396 41.4284C21.4908 41.6343 21.3739 41.8953 21.2797 42.0081C21.051 42.2827 20.9991 42.4993 21.0079 43.1445C21.012 43.4436 21.023 44.3247 21.0321 45.1021C21.0482 46.4892 21.1279 46.9876 21.333 46.9876C21.4501 46.9876 21.6168 46.56 21.607 46.2842L21.5976 46.0086L21.5509 46.3349C21.4108 47.3151 21.0542 46.8236 21.1408 45.77C21.2079 44.9551 21.2085 44.9957 21.109 43.9805C20.9994 42.8642 21.0504 42.4385 21.3307 42.1246C21.4482 41.9933 21.5443 41.8343 21.5446 41.7719C21.5456 41.4816 21.7191 41.0893 21.9469 40.8613C22.0845 40.724 22.197 40.5398 22.197 40.4519C22.197 40.2466 23.1852 39.2727 23.5461 39.1219C23.691 39.0611 23.9213 38.9137 24.0577 38.7941C24.1941 38.6741 24.351 38.5762 24.4061 38.5762C24.4612 38.5762 24.7129 38.4666 24.9655 38.3328C25.5436 38.0267 26.132 37.9237 27.3013 37.9237C28.1521 37.9237 28.2513 37.9089 28.5987 37.7332C28.8054 37.6284 29.2369 37.4706 29.5573 37.3822C30.2812 37.1828 31.2879 36.6356 31.3981 36.3818C31.4117 36.3503 31.6076 36.1973 31.8332 36.0414C32.5558 35.5426 33.1549 34.8713 33.3363 34.3574C33.3962 34.1886 33.5493 33.8876 33.6769 33.6889C33.9078 33.3293 34.0293 32.6205 33.9282 32.2247C33.9087 32.1488 33.8889 32.3182 33.8841 32.6013ZM17.1384 32.3922C17.2487 32.4089 17.4118 32.4086 17.5013 32.3913C17.5904 32.374 17.5003 32.3604 17.3006 32.361C17.1012 32.3614 17.0282 32.3755 17.1384 32.3922ZM34.837 34.6238C34.7072 34.6801 34.6014 34.7604 34.6014 34.8026C34.6014 34.9075 33.681 35.803 33.3682 36.0027C33.2283 36.0918 32.9505 36.3238 32.7501 36.5184C31.9932 37.2543 30.8771 37.9776 30.4787 37.9905C30.3854 37.9937 30.0591 38.0995 29.7532 38.2254C29.2382 38.438 29.1116 38.4587 28.0365 38.5066L26.876 38.5585L28.1089 38.5475C29.2788 38.5368 29.3645 38.5264 29.7775 38.3416C30.0169 38.2342 30.4235 38.0938 30.6809 38.0292C31.0315 37.9414 31.2961 37.8044 31.7327 37.4835C32.7 36.7738 32.8317 36.6645 33.0128 36.4205C33.1086 36.2917 33.2519 36.1648 33.3319 36.1384C33.4116 36.1119 33.6331 35.94 33.8243 35.7561C34.0152 35.5722 34.2621 35.3405 34.3727 35.2406C34.4836 35.1408 34.6052 35.0038 34.643 34.9358C34.8852 34.5022 35.4251 34.5781 35.6825 35.0823C35.7577 35.2293 36.0025 35.5127 36.2271 35.712C36.9371 36.343 37.8027 37.2275 37.9083 37.43C38.2122 38.0135 38.3637 39.2113 38.2201 39.8959C38.0125 40.8865 37.7492 41.0423 36.2863 41.0398C35.0607 41.0376 34.8606 40.9929 34.4858 40.6355C33.7606 39.944 33.6054 39.8212 33.3398 39.7274C33.1845 39.6726 32.9744 39.5186 32.8727 39.3848C32.701 39.1603 32.6654 39.1458 32.3929 39.1893C31.8867 39.2702 31.904 39.3725 32.4975 39.8089C32.6333 39.9088 32.7895 40.0445 32.8446 40.1109C33.692 41.1289 34.4385 41.6463 35.1816 41.731C35.4409 41.7606 35.8 41.8292 35.9795 41.8837C36.1591 41.9382 36.5408 41.9829 36.8278 41.9835C38.32 41.9857 38.9424 42.8236 37.6295 43.0636C37.3998 43.1054 37.1453 43.1753 37.0634 43.2191C36.9815 43.2629 36.6961 43.3885 36.429 43.4981C35.8986 43.716 34.8915 44.3357 34.8915 44.444C34.8915 44.4812 34.7066 44.581 34.4807 44.6654C34.2549 44.7498 33.9808 44.8826 33.8712 44.9604C33.6287 45.1333 33.0979 45.1446 32.6789 44.9859C32.5192 44.9255 32.2011 44.8099 31.9718 44.7287C31.7343 44.6449 31.4904 44.4994 31.4051 44.3914C31.0866 43.9865 30.0796 43.4842 29.2073 43.2953L28.4938 43.1407L27.9703 43.2878C27.6824 43.3684 27.3258 43.4345 27.1775 43.4345C26.7298 43.4345 25.2761 44.3332 25.3618 44.5567C25.4563 44.8027 26.2592 44.6128 26.2592 44.3445C26.2592 44.2261 26.4186 44.1597 26.7018 44.1597C26.819 44.1597 27.1592 44.0942 27.4578 44.0142C27.8232 43.9163 28.0421 43.8904 28.1275 43.9355C28.1971 43.9723 28.5131 44.0554 28.8296 44.12C29.1465 44.1842 29.4757 44.2768 29.5617 44.3253C29.6477 44.3738 29.9328 44.5252 30.1952 44.6616C30.4865 44.8134 30.7048 44.9809 30.7555 45.092C30.8009 45.1922 30.9364 45.3978 31.0557 45.5486C31.504 46.1144 31.7872 47.6306 31.5547 48.2204C31.3827 48.6565 31.3632 49.347 31.5131 49.7057C31.6221 49.9664 31.6602 49.9828 32.7511 50.2451C33.8095 50.4992 34.3601 51.2958 33.5131 51.3472C33.3474 51.3569 33.3455 51.3607 33.4913 51.389C33.7975 51.4482 33.9682 51.2861 33.9137 50.9876C33.8173 50.4601 33.5761 50.3191 32.1598 49.962C31.5112 49.7986 31.2532 49.0255 31.6123 48.3218C31.8634 47.8296 31.8735 47.5875 31.6684 46.9593C31.5657 46.6457 31.4819 46.3185 31.4819 46.2322C31.4819 46.0225 31.2321 45.5429 31.0602 45.4223C30.9839 45.3691 30.88 45.2246 30.8289 45.1012C30.7741 44.9695 30.628 44.8219 30.4743 44.7431C30.3303 44.6695 30.0915 44.5123 29.9432 44.3943C29.7661 44.2532 29.5179 44.149 29.2202 44.0904C28.857 44.0189 28.7099 43.9459 28.4797 43.7223L28.1924 43.4436L28.3902 43.3939C28.9994 43.2412 31.0888 43.9859 31.3333 44.4431C31.5695 44.8839 33.5266 45.3458 33.9033 45.0495C34.0019 44.9721 34.2404 44.8499 34.4325 44.7784C34.625 44.7066 34.8641 44.5766 34.9639 44.4893C35.5732 43.9553 36.9799 43.3067 37.8812 43.1442C38.4157 43.0478 38.4768 43.0028 38.5427 42.6555C38.6192 42.2502 37.8745 41.9149 36.705 41.828C35.4566 41.7351 34.7012 41.5965 34.4565 41.4158C34.3365 41.327 34.1157 41.1714 33.9663 41.07C33.6778 40.8748 33.1505 40.2806 33.1505 40.1512C33.1505 40.1087 33.0963 40.0146 33.0305 39.9415C32.9171 39.8165 32.9205 39.8089 33.0941 39.8089C33.1952 39.8089 33.3184 39.8577 33.3682 39.9176C33.4176 39.9774 33.4869 40.0265 33.5219 40.0265C33.6384 40.0265 34.4341 40.6837 34.5267 40.8566C34.6697 41.1239 36.8631 41.2464 37.5929 41.0279C38.4677 40.7659 38.6866 38.7154 37.9842 37.3633C37.8698 37.1435 36.8221 36.0385 36.7273 36.0379C36.584 36.037 35.8437 35.2312 35.799 35.0271C35.7036 34.5923 35.2994 34.4229 34.837 34.6238ZM35.9146 38.1457C35.6475 38.2654 35.6065 38.3111 35.6437 38.4496C35.6677 38.539 35.6878 38.6688 35.6884 38.7374C35.6894 38.8734 36.0337 39.0838 36.2548 39.0838C36.5456 39.0838 36.6451 38.8571 36.5182 38.4846C36.3588 38.017 36.2895 37.9779 35.9146 38.1457ZM36.441 38.5431C36.5749 38.9361 36.384 39.1197 36.0157 38.9518C35.7382 38.8256 35.7508 38.3271 36.034 38.2295C36.292 38.1404 36.3077 38.1527 36.441 38.5431ZM25.7215 38.6518C25.605 38.6867 25.4897 38.7478 25.4651 38.7875C25.4406 38.8275 25.3073 38.909 25.1687 38.9692C25.0059 39.0397 24.9662 39.079 25.0559 39.0809C25.1322 39.0825 25.341 38.9981 25.5199 38.8933C25.6985 38.7884 26.0116 38.6785 26.2155 38.6486L26.5856 38.5944L26.2592 38.5916C26.0797 38.59 25.8378 38.6171 25.7215 38.6518ZM24.4385 39.2626C24.3028 39.3612 24.1103 39.4982 24.0105 39.5674C23.6356 39.8278 23.2422 40.2133 23.0396 40.5181C22.9246 40.6912 22.7064 40.9328 22.5545 41.0546C22.3469 41.2215 22.2556 41.3657 22.1857 41.6387C22.1186 41.901 22.0272 42.0512 21.8549 42.1825C21.6483 42.3403 21.6183 42.4036 21.6291 42.6637L21.641 42.9631L21.6694 42.6933C21.6902 42.4955 21.7551 42.3825 21.9116 42.271C22.0562 42.168 22.1513 42.0144 22.2071 41.7936C22.2663 41.5584 22.4021 41.3509 22.6963 41.0458C22.9206 40.8134 23.303 40.4154 23.5461 40.1616C24.0489 39.6373 24.4474 39.3051 24.7261 39.1776C24.8389 39.1263 24.8698 39.0891 24.8011 39.0869C24.7372 39.0853 24.574 39.1644 24.4385 39.2626ZM32.7152 39.4736V39.6458L32.425 39.5022C32.2653 39.4232 32.1349 39.3458 32.1349 39.33C32.1349 39.3143 32.2653 39.3014 32.425 39.3014C32.6821 39.3014 32.7152 39.3209 32.7152 39.4736ZM21.5109 44.1052C21.441 45.0429 21.441 45.0517 21.5172 45.5697C21.5683 45.917 21.5827 45.7445 21.5913 44.6814C21.6035 43.1697 21.5884 43.0623 21.5109 44.1052ZM27.1299 43.91C27.1299 43.9868 27.0376 44.0142 26.7853 44.0126L26.4407 44.0107L26.7308 43.8778C27.0404 43.7358 27.1299 43.7431 27.1299 43.91ZM26.0416 44.4497C26.0416 44.4897 25.903 44.5189 25.7335 44.5149C25.4714 44.5089 25.4525 44.4991 25.6066 44.4497C25.8674 44.3662 26.0416 44.3662 26.0416 44.4497ZM24.8187 44.9088C24.6754 45.0813 24.9088 45.3187 25.0679 45.1622C25.2034 45.0287 25.1621 44.8121 25.0011 44.8121C24.9447 44.8121 24.8628 44.8556 24.8187 44.9088ZM25.0594 44.9522C25.113 45.0391 24.9766 45.1251 24.8799 45.0653C24.7986 45.0152 24.8521 44.8848 24.9536 44.8848C24.9888 44.8848 25.0364 44.9151 25.0594 44.9522ZM31.3537 51.4794C31.1833 51.5071 31.0053 51.5682 30.9584 51.6151C30.4261 52.1473 34.6269 52.2597 35.7203 51.7426C35.9376 51.64 36.2073 51.5512 36.3194 51.5458C36.4942 51.5373 36.4996 51.5314 36.3578 51.5043C36.2668 51.487 35.8916 51.5789 35.5237 51.7086C34.8846 51.9347 34.7979 51.9464 33.5499 51.9763C31.246 52.0317 30.1129 51.6195 32.1349 51.4615C32.4288 51.4388 32.4216 51.4356 32.0625 51.4325C31.8429 51.4306 31.5241 51.4517 31.3537 51.4794ZM36.9406 51.4627C37.0502 51.4794 37.2297 51.4794 37.3397 51.4627C37.4493 51.446 37.3595 51.4325 37.14 51.4325C36.9207 51.4325 36.831 51.446 36.9406 51.4627ZM33.0235 54.5105C33.652 54.5224 34.6801 54.5224 35.3086 54.5105C35.937 54.4985 35.4229 54.4884 34.1661 54.4884C32.9092 54.4884 32.3951 54.4985 33.0235 54.5105Z" fill="white"/>
</g>
</g>
</svg>
